<svg width="111" height="53" viewBox="0 0 111 53" fill="none" xmlns="http://www.w3.org/2000/svg">
    <g clip-path="url(#clip0_424_3288)">
        <path
            d="M9.34244 21.8213C9.34244 18.73 11.5597 16.4797 16.5634 16.4797H22.7145V15.2204C22.7145 12.9292 21.4169 12.0154 18.7398 12.0154C16.5634 12.0154 15.3023 12.9292 15.3023 14.4567C15.3023 14.5703 15.3023 14.8749 15.3387 15.2568H9.98896C9.95254 14.9522 9.91156 14.534 9.91156 14.1521C9.91156 10.3379 13.2762 8.08765 19.0038 8.08765C24.7314 8.08765 28.5195 10.7607 28.5195 15.7932V27.2402H22.7099C22.8238 26.2856 22.9786 24.5671 22.9786 23.4261H22.9421C22.3685 26.0992 20.2286 27.5448 16.7911 27.5448C12.3975 27.5448 9.33789 25.6355 9.33789 21.8213H9.34244ZM22.7145 19.9893V19.6074H17.0961C15.5299 19.6074 14.5738 20.3302 14.5738 21.4031C14.5738 22.8533 15.835 23.617 17.9384 23.617C20.957 23.617 22.7145 22.2805 22.7145 19.9938V19.9893Z"
            fill="#1F4CA4" />
        <path
            d="M32.8408 12.8973H30.0498V8.39668H32.8408V6.56462C32.8408 2.21403 36.0142 0.00463867 40.294 0.00463867C42.2062 0.00463867 43.8453 0.422877 44.3461 0.613812V4.88712C43.8498 4.73255 42.8163 4.42796 41.4823 4.42796C39.57 4.42796 38.6549 5.30536 38.6549 6.98285V8.39668H44.6557V12.8973H38.6549V27.2401H32.8453V12.8973H32.8408Z"
            fill="#1F4CA4" />
        <path
            d="M48.6982 20.753V12.8928H45.9072V8.3922H48.1609C49.0397 8.3922 49.3447 7.89668 49.4585 6.75107L49.7272 4.1189H54.5032V8.3922H60.5404V12.8928H54.5032V20.4484C54.5032 22.3941 55.4184 23.0033 57.7131 23.0033C58.5144 23.0033 59.6981 22.8896 60.3492 22.735V27.122C59.8529 27.2357 58.2458 27.5402 56.6795 27.5402C50.7971 27.5402 48.6936 24.9444 48.6936 20.7484L48.6982 20.753Z"
            fill="#1F4CA4" />
        <path
            d="M81.1021 18.9255H67.6891C67.9577 22.0168 69.524 23.3488 72.1191 23.3488C74.3729 23.3488 75.8252 22.5487 75.98 20.7166H81.1021C80.9883 25.0263 77.396 27.5448 72.0099 27.5448C65.745 27.5448 61.8477 23.9943 61.8477 18.0072C61.8477 12.02 65.745 8.08765 72.1282 8.08765C77.4006 8.08765 81.1067 11.1017 81.1067 17.2843V18.9255H81.1021ZM75.98 15.5296C75.98 13.3929 74.5277 12.2882 72.1191 12.2882C69.7106 12.2882 68.2992 13.3565 67.8394 15.8387H75.98V15.5341V15.5296Z"
            fill="#1F4CA4" />
        <path
            d="M83.665 8.39223H89.4746L89.247 13.7702H89.3244C90.1257 10.1834 92.1518 8.08765 95.8579 8.08765C99.564 8.08765 101.972 10.5698 101.972 15.4523C101.972 16.5206 101.859 18.1981 101.781 19.1891H96.5089C96.5863 18.2754 96.6228 17.3207 96.6228 16.7479C96.6228 14.0021 95.5164 12.8928 93.6816 12.8928C91.1956 12.8928 89.4792 14.9158 89.4792 19.1119V27.2402H83.6696V8.39223H83.665Z"
            fill="#1F4CA4" />
        <path
            d="M0.932617 26.1127H6.74219V34.432C6.74219 35.1548 6.62837 37.2915 6.51455 38.7053H6.59195C7.54807 35.1185 9.76536 33.4 14.0451 33.4C18.5936 33.4 21.5348 35.8822 21.5348 40.7647V52.5526H15.7252V42.0603C15.7252 39.3918 14.2364 38.2052 11.6366 38.2052C8.58159 38.2052 6.74675 39.9964 6.74675 43.5832V52.5481H0.932617V26.1082V26.1127Z"
            fill="#1F4CA3" />
        <path
            d="M23.8975 43.1695C23.8975 37.0278 27.9496 33.4045 34.178 33.4045C40.4065 33.4045 44.4586 37.0278 44.4586 43.1695C44.4586 49.3112 40.4065 52.8617 34.178 52.8617C27.9496 52.8617 23.8975 49.2749 23.8975 43.1695ZM38.6445 43.1695C38.6445 39.8145 37.0009 37.8279 34.1735 37.8279C31.3461 37.8279 29.7025 39.81 29.7025 43.1695C29.7025 46.529 31.3461 48.4338 34.1735 48.4338C37.0009 48.4338 38.6445 46.4881 38.6445 43.1695Z"
            fill="#1F4CA3" />
        <path
            d="M46.8268 44.8834V33.7046H52.6364V44.1969C52.6364 46.8291 54.0888 48.052 56.5702 48.052C59.7026 48.052 61.5739 45.9926 61.5739 41.8739V33.7091H67.3834V52.5571H61.5739C61.6877 51.2615 61.8015 49.6977 61.8425 47.6337H61.7651C60.9228 51.257 58.364 52.8617 54.7717 52.8617C49.8819 52.8617 46.8223 50.4205 46.8223 44.8879L46.8268 44.8834Z"
            fill="#1F4CA3" />
        <path
            d="M70.3242 33.7047H76.1338L75.9061 39.0827H75.9835C76.7849 35.4959 78.8109 33.4001 82.517 33.4001C86.2232 33.4001 88.6317 35.8823 88.6317 40.7648C88.6317 41.8331 88.5178 43.5106 88.4404 44.5016H83.1681C83.2455 43.5879 83.2819 42.6332 83.2819 42.0604C83.2819 39.3146 82.1756 38.2053 80.3407 38.2053C77.8548 38.2053 76.1383 40.2283 76.1383 44.4244V52.5527H70.3288V33.7047H70.3242Z"
            fill="#1F4CA3" />
        <path
            d="M90.7676 46.2199H95.9625C95.9625 47.9747 96.8412 49.1203 100.165 49.1203C103.184 49.1203 104.253 48.2429 104.253 46.87C104.253 46.1835 103.912 45.6471 102.915 45.4198C101.922 45.1925 100.393 45.0379 98.5213 44.8879C95.8077 44.6606 93.7088 44.2378 92.5614 43.4377C91.4915 42.674 90.7676 41.3011 90.7676 39.7372C90.7676 35.6548 94.97 33.4045 100.206 33.4045C106.398 33.4045 109.225 35.7685 109.225 40.1555H104.103C104.067 38.1734 103.147 37.1414 100.283 37.1414C97.6835 37.1414 96.5407 38.0188 96.5407 39.3144C96.5407 40.1145 96.8458 40.7237 97.9157 40.9919C98.8718 41.2192 100.552 41.3738 102.578 41.5647C104.909 41.792 106.553 42.0239 107.964 42.824C109.189 43.5104 110.068 44.9243 110.068 46.5609C110.068 50.5296 106.667 52.8572 100.21 52.8572C93.7543 52.8572 90.7721 50.0341 90.7721 46.2199H90.7676Z"
            fill="#1F4CA3" />
    </g>
    <defs>
        <clipPath id="clip0_424_3288">
            <rect width="109.134" height="52.8571" fill="white" transform="translate(0.932617)" />
        </clipPath>
    </defs>
</svg>
