<svg width="110" height="111" viewBox="0 0 110 111" fill="none" xmlns="http://www.w3.org/2000/svg">
    <g clip-path="url(#clip0_329_9174)">
        <path
            d="M55.0006 109.856C85.0496 110.001 109.527 85.7589 109.672 55.7098C109.817 25.6608 85.5749 1.18358 55.5259 1.03852C25.4768 0.893469 0.999598 25.1355 0.854543 55.1845C0.709489 85.2336 24.9515 109.711 55.0006 109.856Z"
            fill="#D2EEF9" />
        <path
            d="M63.7889 84.0239C48.0324 88.7222 31.3905 79.7294 26.6922 63.9729C21.9939 48.2164 30.9867 31.5745 46.7432 26.8762C62.4997 22.1779 79.1416 31.1707 83.8399 46.9272C88.5382 62.6837 79.5454 79.3256 63.7889 84.0239ZM47.3148 28.7931C32.6165 33.1757 24.2266 48.703 28.6091 63.4068C32.9916 78.1051 48.5189 86.495 63.2227 82.1125C77.921 77.73 86.311 62.2027 81.9285 47.4989C77.546 32.8006 62.0186 24.4106 47.3204 28.7931L47.3148 28.7931Z"
            fill="#164CA4" />
        <path
            d="M71.4002 42.9614L68.8258 43.3639C69.5985 48.3246 63.7671 54.1275 55.5509 56.5773C47.6727 58.9292 39.6914 57.4191 37.3829 53.1426L35.0866 54.3818C35.3497 54.8754 35.6684 55.3362 36.0259 55.7749L37.937 57.549C39.6792 58.7966 41.9157 59.6428 44.4586 60.0478L43.4288 68.2306L46.2596 68.5873L47.3009 60.3105C49.7126 60.383 52.3031 60.1023 54.9563 59.4346L57.5694 68.1993L60.2343 67.4045L57.6211 58.6398C60.1481 57.7613 62.433 56.5995 64.3869 55.2424L69.7669 61.5697L71.939 59.7213L66.6249 53.4718C68.553 51.7329 69.9842 49.7925 70.7794 47.7992L71.4333 45.2741C71.5256 44.5 71.5183 43.7199 71.4003 42.9559L71.4002 42.9614Z"
            fill="#164CA4" />
        <path
            d="M6.74504 58.82L6.49141 56.3514L17.2792 55.2306L17.5384 57.6993L16.6306 57.7945C17.4304 58.2852 17.9355 59.0898 18.0411 60.1414C18.258 62.206 16.7784 63.8586 14.3098 64.1122C11.8412 64.3658 10.0549 63.0737 9.84361 61.0092C9.73249 59.963 10.0798 59.0685 10.7579 58.4079L6.75055 58.8256L6.74504 58.82ZM13.6646 57.9572C12.4468 58.0841 11.7182 58.8938 11.8347 59.9676C11.9457 61.047 12.8222 61.6874 14.0399 61.5605C15.2577 61.4336 15.9863 60.6239 15.8698 59.5445C15.7588 58.4652 14.8823 57.8248 13.6646 57.9517L13.6646 57.9572Z"
            fill="#164CA4" />
        <path
            d="M12.6923 47.4191C13.3835 47.4888 14.0794 47.7301 14.6475 48.0869L14.3863 50.6305C13.8459 50.2627 13.3713 50.0281 12.9123 49.9816C12.3262 49.9234 11.91 50.1759 11.8635 50.6515C11.7938 51.3316 12.5433 51.9216 13.793 52.0439L17.614 52.433L17.3642 54.8991L9.65597 54.1151L9.90576 51.6489L11.172 51.7767C10.267 51.3132 9.77871 50.4644 9.88333 49.4193C10.0226 48.0645 11.0998 47.2565 12.6868 47.4135L12.6923 47.4191Z"
            fill="#164CA4" />
        <path
            d="M17.9249 39.677C19.4196 40.6192 20.0417 42.387 19.4178 44.4143C18.6647 46.8559 16.6125 47.958 14.2426 47.2329C11.8728 46.5078 10.7986 44.4114 11.5349 42.0085C12.3836 39.2409 14.9888 38.2079 17.0944 39.7947L15.5263 44.9045C16.4772 45.0308 17.1539 44.6745 17.4405 43.7409C17.6316 43.1167 17.529 42.6017 17.138 42.2402L17.9249 39.677ZM14.2006 44.4666L15.0438 41.71C14.3537 41.419 13.7326 41.7148 13.4573 42.5986C13.2156 43.383 13.4559 44.0259 14.1951 44.461L14.2006 44.4666Z"
            fill="#164CA4" />
        <path
            d="M20.1696 31.8652L23.9988 33.9748L22.9496 35.8729L21.7964 35.2366C22.4168 36.2299 22.4336 37.3198 21.8141 38.4454C20.9713 39.9793 19.6143 40.3103 18.4777 39.6852C17.0928 38.9206 16.9514 37.2547 18.023 35.3125C18.2909 34.8214 18.614 34.3638 18.909 33.9945C18.142 33.587 17.4339 33.5891 16.9762 34.4167C16.6692 34.974 16.739 35.4224 17.225 35.5963L16.0529 37.7261C14.2575 37.1974 14.1785 35.222 15.1887 33.3902C16.3886 31.2218 18.2219 30.7825 20.1751 31.8597L20.1696 31.8652ZM20.3659 34.7484C20.0212 35.0898 19.7148 35.5419 19.5306 35.8785C19.0283 36.7889 19.1146 37.243 19.5229 37.4662C19.9147 37.6839 20.2697 37.492 20.532 37.0119C20.9283 36.2946 20.8438 35.4478 20.3659 34.7429L20.3659 34.7484Z"
            fill="#164CA4" />
        <path
            d="M28.838 21.7055L32.2082 24.9305L30.4956 26.7257L27.1254 23.5007C26.5857 22.9892 25.9832 22.8811 25.5773 23.3052C25.0213 23.8889 25.2047 24.8579 26.0913 25.7031L28.9053 28.3888L27.1928 30.1785L23.8226 26.9535C23.2388 26.3975 22.6253 26.2783 22.1972 26.7244C21.6634 27.2861 21.8189 28.3103 22.7826 29.2333L25.558 31.8912L23.8454 33.6864L18.2449 28.3318L19.9575 26.5421L20.9432 27.4873C20.5165 26.5005 20.721 25.3895 21.4716 24.602C22.2334 23.8035 23.3021 23.6095 24.2184 24.0344C23.7804 23.0807 23.9126 22.0468 24.7245 21.1933C25.8366 20.0258 27.3017 20.2265 28.8491 21.7055L28.838 21.7055Z"
            fill="#164CA4" />
        <path
            d="M26.9856 16.9278C26.5351 16.2783 26.6885 15.4382 27.3379 14.9877C27.9874 14.5371 28.8276 14.6906 29.2781 15.34C29.7286 15.9895 29.5752 16.8296 28.9257 17.2802C28.2763 17.7307 27.4361 17.5772 26.9856 16.9278ZM32.7883 25.0882L28.3822 18.7104L30.4249 17.2985L34.831 23.6763L32.7883 25.0882Z"
            fill="#164CA4" />
        <path
            d="M39.8806 15.9113L41.8804 19.9539L39.6566 21.0552L37.6569 17.0125C37.4103 16.5134 36.9995 15.6761 36.0678 16.1363C35.3192 16.5089 35.1592 17.5537 35.729 18.7071L37.4329 22.1509L35.2091 23.2522L31.774 16.3036L33.9977 15.2079L34.5839 16.3891C34.5005 15.3431 35.0305 14.4218 36.073 13.9068C38.3356 12.7891 39.4643 15.0683 39.8861 15.9168L39.8806 15.9113Z"
            fill="#164CA4" />
        <path
            d="M49.4772 18.5633C49.901 20.1697 48.483 21.6621 46.4446 22.1999C44.4227 22.7323 42.5724 22.1148 41.8058 20.4736L44.4314 19.7837C44.6782 20.233 45.192 20.3682 45.9011 20.1836C46.5935 20.0043 47.11 19.5919 46.9687 19.0657C46.8492 18.6004 46.2806 18.3487 45.1727 18.6421C44.5412 18.8105 43.7651 19.1387 43.1494 19.4787L42.7799 18.0828C44.0491 17.6076 44.8596 17.0251 45.333 16.3857C45.039 16.5447 44.7175 16.6759 44.3464 16.7737C42.5018 17.2572 40.9781 16.5859 40.5652 15.0128C40.1307 13.351 41.25 11.835 43.3937 11.27C44.5182 10.9767 45.4971 11.0368 46.2477 11.4C46.2334 10.9241 46.0313 10.3976 45.7737 9.90397L47.4244 9.46936C47.8241 10.3233 47.7743 11.4627 47.3166 12.3014C47.4925 12.5456 47.6183 12.845 47.7053 13.1607C48.0149 14.3461 47.6154 15.7328 46.5143 16.9169C48.0308 16.7749 49.1622 17.3557 49.4772 18.5577L49.4772 18.5633ZM44.3552 14.9426C45.0144 14.7687 45.3651 14.3223 45.2347 13.8293C45.1043 13.3363 44.5853 13.118 43.9261 13.2919C43.2669 13.4657 42.9163 13.9066 43.0466 14.4051C43.177 14.8981 43.696 15.1164 44.3552 14.9426Z"
            fill="#164CA4" />
        <path
            d="M76.9495 11.9188L79.2072 12.9477L74.695 22.8176L72.4373 21.7888L72.8175 20.9552C71.9855 21.3938 71.0394 21.4224 70.0789 20.9807C68.191 20.1196 67.5208 18.0031 68.5496 15.7509C69.5784 13.4931 71.6019 12.6122 73.4898 13.4788C74.4503 13.915 75.0442 14.6647 75.2721 15.5897L76.9494 11.9244L76.9495 11.9188ZM74.1746 18.3173C74.6834 17.2023 74.3565 16.1662 73.3683 15.7188C72.3803 15.2659 71.3824 15.6982 70.8735 16.8132C70.3647 17.9283 70.6917 18.9644 71.6798 19.4118C72.6679 19.8646 73.6658 19.4324 74.1746 18.3173Z"
            fill="#164CA4" />
        <path
            d="M83.7623 22.8115C83.3502 23.3738 82.7947 23.8469 82.2012 24.1649L80.1394 22.6557C80.7272 22.3764 81.1712 22.0854 81.4441 21.7105C81.7894 21.2364 81.7807 20.7495 81.3948 20.4655C80.8435 20.0645 79.9566 20.4143 79.216 21.4231L76.9494 24.5268L74.9482 23.0622L79.5149 16.8051L81.5161 18.2642L80.7642 19.2896C81.6244 18.746 82.598 18.7507 83.447 19.3689C84.5496 20.1709 84.7036 21.5105 83.7624 22.8005L83.7623 22.8115Z"
            fill="#164CA4" />
        <path
            d="M87.7987 31.2346C86.2291 32.0458 84.3886 31.6939 82.9522 30.1324C81.2241 28.2486 81.3073 25.92 83.1355 24.2414C84.9582 22.5629 87.3143 22.696 89.0094 24.5409C90.9685 26.6747 90.5458 29.4443 88.1122 30.4561L84.4965 26.5218C83.9065 27.2768 83.8751 28.0401 84.5355 28.757C84.9758 29.2349 85.4729 29.4088 85.9826 29.2564L87.7987 31.2291L87.7987 31.2346ZM85.5466 25.6029L87.4947 27.7257C88.0944 27.2805 88.1586 26.5892 87.5256 25.9057C86.9698 25.3 86.2954 25.1861 85.541 25.6029L85.5466 25.6029Z"
            fill="#164CA4" />
        <path
            d="M93.3967 37.1368L89.6351 39.3648L88.5266 37.5006L89.6584 36.8311C88.4854 36.8586 87.5364 36.323 86.8834 35.2189C85.9889 33.7153 86.3882 32.3784 87.5089 31.7144C88.8682 30.9078 90.3805 31.6343 91.511 33.5373C91.7964 34.0144 92.0262 34.5301 92.1956 34.9679C92.9336 34.5123 93.2962 33.9 92.8132 33.0899C92.4895 32.5407 92.0698 32.3782 91.6699 32.7082L90.4297 30.6166C91.7968 29.3397 93.5405 30.2664 94.6051 32.0696C95.8728 34.2001 95.3163 36.0065 93.4022 37.1424L93.3967 37.1368ZM90.8083 35.8409C90.6889 35.37 90.4534 34.8821 90.2558 34.5492C89.7235 33.6559 89.2927 33.4989 88.8933 33.7349C88.5049 33.9654 88.4919 34.3692 88.7718 34.8352C89.1888 35.5398 89.9616 35.8976 90.8083 35.8409Z"
            fill="#164CA4" />
        <path
            d="M97.7286 49.7436L93.2358 51.0054L92.5669 48.6178L97.0541 47.3559C97.7687 47.1547 98.1693 46.6864 98.0116 46.1213C97.7941 45.3458 96.8607 45.0093 95.6863 45.3411L91.9414 46.3908L91.2725 44.0031L95.7652 42.7413C96.5408 42.5238 96.958 42.0556 96.7894 41.4573C96.5827 40.7094 95.6165 40.323 94.3368 40.682L90.6362 41.7208L89.9673 39.3331L97.4238 37.2392L98.0927 39.6268L96.7798 39.9967C97.8469 40.1291 98.7008 40.8745 98.9945 41.916C99.2937 42.9741 98.9181 43.9958 98.08 44.5671C99.125 44.6773 99.9463 45.3119 100.267 46.4476C100.702 47.9987 99.7894 49.1561 97.7286 49.7325L97.7286 49.7436Z"
            fill="#164CA4" />
        <path
            d="M92.847 51.4407L100.573 50.8639L100.76 53.3378L93.0342 53.9146L92.847 51.4463L92.847 51.4407ZM102.815 50.5539C103.601 50.4968 104.251 51.0532 104.308 51.839C104.365 52.6249 103.809 53.275 103.023 53.3321C102.237 53.3892 101.587 52.8328 101.53 52.0469C101.473 51.2611 102.029 50.6109 102.815 50.5539Z"
            fill="#164CA4" />
        <path
            d="M97.182 62.1997L92.6858 61.8792L92.8582 59.4071L97.3544 59.7276C97.913 59.769 98.8365 59.8343 98.9135 58.7946C98.9728 57.9595 98.1517 57.2972 96.8687 57.2025L93.0361 56.9295L93.214 54.4575L100.94 55.0093L100.762 57.4813L99.4458 57.3864C100.39 57.8391 100.916 58.7656 100.833 59.9214C100.655 62.4377 98.1222 62.2595 97.1765 62.1941L97.182 62.1997Z"
            fill="#164CA4" />
        <path
            d="M90.0222 69.1414C88.4255 68.6911 87.8597 66.7078 88.4283 64.6802C88.9968 62.6637 90.469 61.3873 92.2717 61.562L91.5343 64.1752C91.0254 64.1616 90.6419 64.536 90.4449 65.2376C90.2535 65.9227 90.3388 66.5759 90.8637 66.7223C91.3278 66.8518 91.8329 66.4946 92.1426 65.3897C92.3171 64.7654 92.4262 63.925 92.4462 63.2225L93.8329 63.6164C93.5996 64.9541 93.6944 65.9449 94.0007 66.6766C94.0134 66.3447 94.0648 66.002 94.1662 65.6263C94.684 63.792 96.0386 62.8194 97.6021 63.264C99.2595 63.7311 99.9925 65.4663 99.3902 67.5988C99.075 68.7204 98.5234 69.5309 97.8296 69.9923C98.249 70.2212 98.8018 70.3123 99.3549 70.3427L98.8933 71.9835C97.9532 71.896 96.9992 71.2718 96.5052 70.4562C96.2063 70.4879 95.8801 70.4421 95.5707 70.3521C94.394 70.02 93.4033 68.9641 92.9349 67.4183C92.2865 68.7982 91.21 69.479 90.0166 69.1413L90.0222 69.1414ZM95.7439 66.5688C95.5582 67.2263 95.7659 67.7528 96.2576 67.888C96.7493 68.0287 97.199 67.6878 97.3848 67.0304C97.5705 66.373 97.3628 65.8464 96.8711 65.7112C96.3794 65.5705 95.9296 65.9114 95.7439 66.5688Z"
            fill="#164CA4" />
        <path
            d="M84.9794 93.9791L83.0687 95.5577L76.1605 87.1983L78.0712 85.6197L78.6542 86.3251C78.6201 85.3845 79.0115 84.5233 79.8224 83.8523C81.4221 82.5323 83.6169 82.8472 85.1954 84.7579C86.774 86.6686 86.6859 88.87 85.0862 90.1956C84.2752 90.8666 83.3393 91.0723 82.4163 90.8798L84.9849 93.9847L84.9794 93.9791ZM80.4297 88.696C81.2107 89.6402 82.2833 89.7948 83.122 89.1073C83.9551 88.4143 84.0046 87.3302 83.2291 86.386C82.4481 85.4417 81.3756 85.2871 80.5369 85.9746C79.7037 86.6677 79.6542 87.7518 80.4353 88.696L80.4297 88.696Z"
            fill="#164CA4" />
        <path
            d="M72.1986 95.3504C71.8752 94.7347 71.6905 94.0257 71.6661 93.3506L73.9235 92.1555C73.9203 92.8083 73.9842 93.3342 74.2035 93.7446C74.4776 94.266 74.9192 94.4728 75.3463 94.248C75.9508 93.9301 76.0218 92.9789 75.4407 91.8696L73.6425 88.4752L75.8334 87.3184L79.4516 94.1683L77.2608 95.325L76.6687 94.2046C76.78 95.212 76.3498 96.0896 75.418 96.583C74.2144 97.2189 72.9386 96.7702 72.193 95.3614L72.1986 95.3504Z"
            fill="#164CA4" />
        <path
            d="M62.8987 95.3441C62.8297 93.579 63.9269 92.0629 65.9493 91.4199C68.3872 90.6516 70.4622 91.7183 71.2087 94.0786C71.9552 96.4445 70.8387 98.5193 68.4507 99.2712C65.6859 100.143 63.3588 98.5883 63.4711 95.9554L68.5686 94.3425C68.1356 93.4884 67.4569 93.1366 66.526 93.4309C65.9054 93.627 65.5385 94.0015 65.4585 94.5322L62.9042 95.3386L62.8987 95.3441ZM68.9548 95.6887L66.2067 96.5551C66.358 97.2861 66.9538 97.6375 67.8403 97.3541C68.6216 97.1089 69.0116 96.5465 68.9549 95.6832L68.9548 95.6887Z"
            fill="#164CA4" />
        <path
            d="M55.1027 97.7628L54.731 93.4072L56.895 93.224L57.0048 94.5356C57.4913 93.4703 58.385 92.8494 59.6634 92.7394C61.4068 92.5929 62.4368 93.5329 62.5467 94.828C62.683 96.4053 61.3668 97.4446 59.164 97.6331C58.6106 97.6802 58.0464 97.6664 57.5763 97.6254C57.6662 98.4889 58.0561 99.0772 58.997 98.9987C59.6279 98.9465 59.9614 98.6383 59.8421 98.1343L62.2662 97.9302C62.8219 99.7198 61.2285 100.879 59.142 101.057C56.6736 101.267 55.2856 99.9877 55.0972 97.7628L55.1027 97.7628ZM57.3961 95.9981C57.8714 96.0999 58.4135 96.097 58.8009 96.0657C59.8359 95.9766 60.1639 95.6518 60.1274 95.1925C60.0908 94.7442 59.7321 94.5599 59.1897 94.6015C58.3706 94.6695 57.7152 95.2085 57.3961 95.9981Z"
            fill="#164CA4" />
        <path
            d="M41.8392 96.1663L42.658 91.5729L45.1012 92.0107L44.2824 96.6041C44.1516 97.3392 44.3978 97.8992 44.9782 98.0016C45.7742 98.1437 46.4801 97.4501 46.6906 96.245L47.373 92.4145L49.8162 92.8522L48.9973 97.4456C48.8552 98.2416 49.1014 98.8181 49.7094 98.9262C50.4722 99.0626 51.2445 98.3638 51.4777 97.0537L52.1543 93.2674L54.5975 93.7052L53.2329 101.333L50.7897 100.895L51.0286 99.5522C50.4433 100.457 49.4011 100.9 48.3343 100.706C47.2509 100.513 46.4913 99.7294 46.3412 98.7273C45.7892 99.6209 44.8575 100.087 43.6967 99.8764C42.1104 99.5921 41.4639 98.2667 41.8392 96.1608L41.8392 96.1663Z"
            fill="#164CA4" />
        <path
            d="M38.8927 100.362C38.6014 101.097 37.8142 101.436 37.0799 101.139C36.3455 100.848 36.0063 100.061 36.303 99.3262C36.5943 98.5918 37.3815 98.2526 38.1158 98.5494C38.8502 98.8406 39.1894 99.6278 38.8927 100.362ZM42.4729 91.0078L39.6057 98.2081L37.3031 97.2896L40.1704 90.0894L42.4729 91.0078Z"
            fill="#164CA4" />
        <path
            d="M30.8969 90.1995L33.1508 86.2935L35.2969 87.532L33.043 91.438C32.764 91.9235 32.3009 92.729 33.2002 93.2478C33.9229 93.6662 34.8821 93.2172 35.5237 92.1028L37.4429 88.7706L39.589 90.0091L35.7172 96.7232L33.5711 95.4847L34.2294 94.3427C33.4075 94.9915 32.345 95.0638 31.3409 94.4836C29.1507 93.2228 30.4227 91.0215 30.8913 90.1995L30.8969 90.1995Z"
            fill="#164CA4" />
        <path
            d="M27.7733 80.7409C28.8747 79.5014 30.9033 79.8487 32.4788 81.2504C34.0432 82.641 34.5542 84.5189 33.6118 86.069L31.5846 84.2722C31.8191 83.8197 31.6501 83.3099 31.1047 82.8315C30.5703 82.3587 29.9462 82.1565 29.5846 82.5587C29.2676 82.9167 29.3697 83.5258 30.2236 84.2878C30.7083 84.7217 31.4197 85.1843 32.0433 85.5082L31.0866 86.5879C29.9839 85.797 29.0506 85.4495 28.2597 85.4069C28.5522 85.5632 28.8389 85.7582 29.1309 86.0141C30.5577 87.2769 30.8429 88.9213 29.7638 90.1387C28.6235 91.4278 26.7374 91.3302 25.0793 89.8616C24.2089 89.0884 23.7206 88.2396 23.6029 87.4148C23.2143 87.6895 22.8913 88.1471 22.6233 88.6382L21.3453 87.5035C21.8361 86.6981 22.807 86.1109 23.759 86.0214C23.86 85.7397 24.0438 85.4695 24.2608 85.2216C25.0729 84.3072 26.4526 83.8713 28.0501 84.1279C27.0877 82.9449 26.95 81.6774 27.7732 80.7519L27.7733 80.7409ZM27.5992 87.0081C27.0924 86.5575 26.5283 86.5105 26.189 86.8962C25.8497 87.2763 25.9577 87.83 26.47 88.2861C26.9823 88.7367 27.5408 88.7837 27.8802 88.398C28.2195 88.0124 28.1115 87.4642 27.5992 87.0081Z"
            fill="#164CA4" />
        <path
            d="M59.1227 14.704C59.6818 14.7067 60.1373 14.2556 60.14 13.6965C60.1427 13.1373 59.6916 12.6819 59.1325 12.6792C58.5734 12.6765 58.1179 13.1276 58.1152 13.6867C58.1125 14.2458 58.5636 14.7013 59.1227 14.704Z"
            fill="#164CA4" />
        <path
            d="M90.2477 78.6691C90.8069 78.6717 91.2623 78.2207 91.265 77.6616C91.2677 77.1024 90.8166 76.647 90.2575 76.6443C89.6984 76.6416 89.2429 77.0927 89.2402 77.6518C89.2375 78.2109 89.6886 78.6664 90.2477 78.6691Z"
            fill="#164CA4" />
        <path
            d="M18.2321 74.4931C18.7912 74.4958 19.2467 74.0448 19.2494 73.4857C19.2521 72.9265 18.801 72.4711 18.2419 72.4684C17.6828 72.4657 17.2273 72.9168 17.2246 73.4759C17.2219 74.035 17.673 74.4904 18.2321 74.4931Z"
            fill="#164CA4" />
    </g>
    <defs>
        <clipPath id="clip0_329_9174">
            <rect width="108.841" height="108.841" fill="white"
                transform="translate(1.10645 0.764893) rotate(0.276579)" />
        </clipPath>
    </defs>
</svg>
    