<svg xmlns="http://www.w3.org/2000/svg" width="32" height="32" viewBox="0 0 32 32" fill="none">
    <path d="M21.1294 25.9361L21.3697 25.7699C22.1217 25.25 22.4977 24.9899 22.8341 24.7112C24.6618 23.1964 25.8893 21.0849 26.2979 18.7533C26.3731 18.3242 26.4122 17.8703 26.4903 16.9624L26.5307 16.493C26.6601 14.9903 26.6472 13.4788 26.4922 11.9785L26.4443 11.5142C26.1731 8.88873 24.5613 6.58759 22.1796 5.42558C18.2636 3.51504 13.6796 3.51504 9.76363 5.42558C7.38193 6.58759 5.77013 8.88874 5.49893 11.5142L5.45097 11.9785C5.296 13.4788 5.2831 14.9903 5.41245 16.493L5.45286 16.9624C5.53101 17.8703 5.57008 18.3242 5.64528 18.7533C6.05385 21.0849 7.28141 23.1964 9.1091 24.7112C9.44544 24.9899 9.82154 25.25 10.5735 25.77L10.8138 25.9361C11.8361 26.643 12.3473 26.9965 12.8596 27.2422C14.8261 28.185 17.1171 28.185 19.0836 27.2422C19.5959 26.9965 20.1071 26.643 21.1294 25.9361Z" stroke="#164CA4" stroke-width="1.99638"/>
    <path d="M18.3247 13.6182L13.6191 18.3237M18.3247 18.3237L13.6191 13.6182" stroke="#164CA4" stroke-width="1.99638" stroke-linecap="round"/>
</svg>