<svg xmlns="http://www.w3.org/2000/svg" width="21" height="20" viewBox="0 0 21 20" fill="none">
    <g clip-path="url(#clip0_449_5679)">
        <path
            d="M10.5 20C16.0228 20 20.5 15.5228 20.5 10C20.5 4.47715 16.0228 0 10.5 0C4.97715 0 0.5 4.47715 0.5 10C0.5 15.5228 4.97715 20 10.5 20Z"
            fill="#164CA4" />
        <path
            d="M16.1067 9.16564L15.3548 9.06348C15.1588 10.5105 13.0503 11.6426 10.5549 11.6426C8.0595 11.6426 6.06318 10.559 5.77512 9.17569L5.0332 9.32976C5.0667 9.48887 5.11527 9.64462 5.17891 9.79535L5.5641 10.4485C5.94595 10.9409 6.49862 11.3629 7.17355 11.6878L6.20554 13.8834L6.9642 14.2184L7.94226 11.9977C8.60714 12.2187 9.35409 12.3561 10.1479 12.3912V15.0524H10.9568V12.3912C11.7356 12.3561 12.4691 12.2221 13.1256 12.0077L14.0987 14.2184L14.859 13.8834L13.8977 11.6996C14.5793 11.3763 15.1404 10.9543 15.5289 10.4636L15.9208 9.81377C16.0113 9.6061 16.0732 9.38838 16.105 9.16564H16.1067Z"
            fill="#FAF1E8" />
    </g>
    <defs>
        <clipPath id="clip0_449_5679">
            <rect width="20" height="20" fill="white" transform="translate(0.5)" />
        </clipPath>
    </defs>
</svg>