<svg xmlns="http://www.w3.org/2000/svg" width="32" height="32" viewBox="0 0 32 32" fill="none">
    <path d="M12.8481 6.10413C14.0168 3.28886 17.9241 3.28886 19.0929 6.10413L19.907 8.06507C20.3856 9.21801 21.4365 10.0173 22.6554 10.1554L24.9271 10.4128C27.7961 10.738 28.9811 14.3413 26.8858 16.3687L24.9569 18.2351C24.1088 19.0557 23.7341 20.2643 23.9651 21.4337L24.4308 23.7912C25.0203 26.7754 21.8234 29.0285 19.3002 27.4072L17.7767 26.4283C16.6727 25.7189 15.2682 25.7189 14.1643 26.4283L12.6408 27.4072C10.1175 29.0285 6.92063 26.7754 7.51013 23.7912L7.97583 21.4337C8.20686 20.2643 7.83213 19.0557 6.98407 18.2351L5.05521 16.3687C2.9599 14.3413 4.14487 10.738 7.01384 10.4128L9.28561 10.1554C10.5044 10.0173 11.5553 9.218 12.034 8.06507L12.8481 6.10413Z" stroke="#164CA4" stroke-width="1.99638" stroke-linecap="round" stroke-linejoin="round"/>
</svg>