<svg width="27" height="28" viewBox="0 0 27 28" fill="none" xmlns="http://www.w3.org/2000/svg">
    <g clip-path="url(#clip0_329_3192)">
        <path
            d="M13.3643 27.4483C20.7453 27.4483 26.7287 21.4273 26.7287 13.9999C26.7287 6.57257 20.7453 0.551514 13.3643 0.551514C5.98342 0.551514 0 6.57257 0 13.9999C0 21.4273 5.98342 27.4483 13.3643 27.4483Z"
            fill="#FAF1E8" />
        <path
            d="M20.8576 12.8784L19.8527 12.741C19.5908 14.6869 16.7729 16.2095 13.438 16.2095C10.103 16.2095 7.43509 14.7523 7.05012 12.8919L6.05859 13.0991C6.10336 13.313 6.16827 13.5225 6.25332 13.7252L6.76811 14.6036C7.27842 15.2658 8.01703 15.8334 8.91902 16.2703L7.62534 19.223L8.63925 19.6735L9.94636 16.687C10.8349 16.9843 11.8332 17.169 12.8941 17.2163V20.7951H13.9751V17.2163C15.0159 17.169 15.9962 16.9888 16.8736 16.7005L18.174 19.6735L19.1902 19.223L17.9054 16.2861C18.8164 15.8514 19.5662 15.2838 20.0854 14.6239L20.6092 13.75C20.73 13.4707 20.8129 13.1779 20.8554 12.8784H20.8576Z"
            fill="#164CA4" />
    </g>
    <defs>
        <clipPath id="clip0_329_3192">
            <rect width="26.7287" height="26.8968" fill="white" transform="translate(0 0.551514)" />
        </clipPath>
    </defs>
</svg>