<svg xmlns="http://www.w3.org/2000/svg" width="185" height="161" viewBox="0 0 185 161" fill="none">
    <path d="M184.323 107.416L174.851 98.6076C157.908 116.845 117.414 111.912 82.6506 87.4059C47.8871 62.8995 30.7194 28.1965 40.2941 6.09275L28.445 0.953451C27.3489 3.49923 26.4956 6.14638 25.9017 8.87154L24.8524 21.7551C25.3356 32.3656 28.8895 43.6737 35.1007 54.8289L0.049304 75.9148L7.32835 88.0324L42.7665 66.6952C49.8576 76.305 58.9144 85.5539 69.628 93.84L43.4889 130.92L54.7579 138.864L80.897 101.784C92.0914 108.942 103.627 114.279 114.878 117.739L106.719 158.098L120.602 160.898L128.66 121.028C141.331 123.218 153.292 122.848 163.525 119.826L175.367 114.621C178.667 112.615 181.669 110.19 184.3 107.399L184.323 107.416Z" fill="#164CA4"/>
</svg>