<svg xmlns="http://www.w3.org/2000/svg" width="82" height="52" viewBox="0 0 82 52" fill="none">
    <g clip-path="url(#clip0_730_6365)">
    <path d="M40.9681 51.2839C54.7575 51.2839 65.9361 40.0695 65.9361 26.2358C65.9361 12.4021 54.7575 1.18774 40.9681 1.18774C27.1786 1.18774 16 12.4021 16 26.2358C16 40.0695 27.1786 51.2839 40.9681 51.2839Z" stroke="#164CA4" stroke-width="1.86375" stroke-miterlimit="10"/>
    <path d="M53.0341 22.6318L51.3561 22.4053C50.9168 25.6434 46.2124 28.1776 40.6477 28.1776C35.0829 28.1776 30.6226 25.7536 29.9819 22.6501L28.3223 22.999C28.3955 23.3541 28.5053 23.703 28.6457 24.0396L29.506 25.5026C30.3602 26.6044 31.5928 27.5532 33.0999 28.2755L30.9399 33.1909L32.6362 33.9377L34.8205 28.9672C36.3033 29.463 37.9751 29.7691 39.7446 29.8487V35.8046H41.5507V29.8487C43.2897 29.7691 44.9249 29.4692 46.3893 28.9917L48.5615 33.9438L50.2578 33.197L48.11 28.3061C49.6293 27.5838 50.8802 26.635 51.7466 25.5393L52.6192 24.0886C52.8205 23.6234 52.9608 23.1337 53.028 22.6379L53.0341 22.6318Z" fill="#164CA4"/>
    </g>
    <defs>
    <clipPath id="clip0_730_6365">
    <rect width="81.073" height="51.253" fill="white" transform="translate(0 0.606201)"/>
    </clipPath>
    </defs>
</svg>