<svg xmlns="http://www.w3.org/2000/svg" width="21" height="22" viewBox="0 0 21 22" fill="none">
    <g clip-path="url(#clip0_548_4475)">
        <path
            d="M9.5228 21.2642C8.08813 21.2391 6.71612 20.9513 5.41928 20.3381C3.44583 19.4057 1.94852 17.979 0.958659 16.0329C0.438671 15.0067 0.125425 13.9179 0.0314512 12.7728C-0.169026 10.2636 0.532644 8.02966 2.14273 6.10236C3.55233 4.41911 5.35036 3.37411 7.4867 2.89855C7.69344 2.85475 7.90019 2.8172 8.10066 2.78591C8.45776 2.7296 8.79607 2.89229 8.97149 3.20516C9.14064 3.50552 9.10931 3.86845 8.88378 4.15004C8.2009 5.00731 7.75609 5.97096 7.56188 7.04724C7.33008 8.34253 7.46791 9.60653 8.00669 10.8142C8.6833 12.3348 9.78592 13.4423 11.277 14.1745C11.9849 14.5249 12.7367 14.7314 13.5198 14.819C14.8167 14.9629 16.0634 14.7752 17.2537 14.2433C17.7862 14.0055 18.3501 14.2996 18.4503 14.8628C18.4754 15.013 18.4566 15.1631 18.4002 15.3133C18.0055 16.3083 17.4479 17.2031 16.74 18.004C15.8316 19.0303 14.754 19.8187 13.5073 20.3819C12.6051 20.7886 11.6591 21.0577 10.6693 21.164C10.2809 21.2078 9.89243 21.2266 9.49774 21.2516L9.5228 21.2642ZM6.44046 4.97602C6.2901 5.04485 6.13348 5.11369 5.98312 5.18877C4.79905 5.77072 3.82173 6.5967 3.05741 7.66672C2.24297 8.80558 1.79189 10.0758 1.69165 11.4775C1.629 12.3848 1.72924 13.2797 2.0049 14.1494C2.66272 16.2019 3.97208 17.7099 5.87662 18.7049C6.84141 19.2117 7.87513 19.4808 8.96522 19.5559C9.8799 19.6185 10.7758 19.5371 11.6529 19.2993C13.1878 18.8738 14.4909 18.0666 15.5434 16.8652C15.6624 16.7338 15.7689 16.5898 15.8942 16.4397C15.8566 16.4397 15.8441 16.4397 15.8253 16.4397C15.3366 16.521 14.8417 16.5648 14.3468 16.5586C13.2316 16.5586 12.1541 16.3521 11.1204 15.9391C9.85484 15.4322 8.76474 14.6751 7.8626 13.6551C6.75371 12.3974 6.0771 10.9394 5.85782 9.28115C5.71373 8.20486 5.78264 7.13484 6.07083 6.08985C6.17107 5.7144 6.3089 5.35147 6.4342 4.97602H6.44046Z"
            fill="#164CA4" />
        <path
            d="M17.8425 6.47789C17.6295 6.47789 17.454 6.35274 17.3789 6.14624C17.2034 5.66442 17.028 5.18885 16.8651 4.70703C16.8025 4.5193 16.6772 4.40667 16.4892 4.3441C16.0068 4.1814 15.5244 4.01245 15.0421 3.8435C14.8228 3.76841 14.6912 3.58694 14.6975 3.37419C14.6975 3.16144 14.8228 2.99249 15.0421 2.91114C15.5119 2.74845 15.9818 2.57949 16.4517 2.4168C16.6647 2.34797 16.8025 2.22282 16.8714 2.00381C17.0343 1.52824 17.2034 1.05893 17.3789 0.589625C17.4791 0.30804 17.7861 0.189149 18.0555 0.30804C18.187 0.364357 18.2685 0.464476 18.3186 0.60214C18.4878 1.07771 18.6632 1.55327 18.8323 2.0351C18.895 2.22282 19.014 2.34171 19.202 2.40429C19.6906 2.57324 20.1793 2.74219 20.6617 2.9174C20.8684 2.99249 20.9937 3.16144 21 3.37419C21 3.58694 20.8747 3.76215 20.6679 3.83724C20.1793 4.01245 19.6906 4.1814 19.1957 4.35035C19.014 4.41293 18.895 4.53182 18.8323 4.71328C18.6632 5.18885 18.494 5.66442 18.3249 6.13373C18.2434 6.35899 18.0743 6.48414 17.8425 6.47789Z"
            fill="#164CA4" />
        <path
            d="M10.9258 7.10365C10.9258 6.94722 11.001 6.84084 11.1576 6.78452C11.427 6.69066 11.6901 6.5968 11.9595 6.50294C12.0848 6.45913 12.1662 6.37779 12.2101 6.25264C12.3041 5.98983 12.398 5.72701 12.492 5.4642C12.5797 5.23893 12.8491 5.16384 13.0308 5.32028C13.0809 5.35782 13.1185 5.4204 13.1373 5.48297C13.2375 5.73953 13.3315 6.00234 13.4192 6.26515C13.4631 6.38404 13.5383 6.46539 13.6635 6.50919C13.9329 6.60306 14.1961 6.69692 14.4655 6.79078C14.6158 6.84084 14.6973 6.95347 14.7035 7.10365C14.7035 7.25383 14.6283 7.37272 14.478 7.42278C14.2149 7.51664 13.9517 7.6105 13.6823 7.69811C13.5445 7.74191 13.4631 7.82952 13.413 7.96092C13.3252 8.21748 13.2313 8.47403 13.1373 8.72433C13.0809 8.88077 12.9556 8.96837 12.8053 8.96837C12.6549 8.96837 12.5421 8.88702 12.4857 8.73059C12.3918 8.46778 12.2978 8.21122 12.2038 7.94841C12.16 7.82952 12.0848 7.74817 11.9595 7.70437C11.6901 7.61051 11.4207 7.51664 11.1513 7.42278C11.001 7.36646 10.9258 7.25383 10.9258 7.10365Z"
            fill="#164CA4" />
        <path
            d="M15.9632 8.96826C16.0634 8.96826 16.1386 9.02458 16.1762 9.13096C16.2326 9.28739 16.2952 9.45009 16.3453 9.61278C16.3829 9.72541 16.4518 9.79425 16.5646 9.82553C16.7275 9.87559 16.8841 9.93817 17.047 9.99448C17.1598 10.032 17.2162 10.1071 17.2162 10.2072C17.2162 10.3074 17.1535 10.3887 17.0408 10.4262C16.8716 10.4826 16.7087 10.5451 16.5396 10.6015C16.4456 10.6327 16.3829 10.6953 16.3516 10.7892C16.2952 10.9581 16.2326 11.1208 16.1762 11.2835C16.1386 11.3899 16.0572 11.4525 15.9569 11.4525C15.8567 11.4525 15.7815 11.3962 15.7376 11.296C15.675 11.1271 15.6123 10.9581 15.5497 10.7829C15.5184 10.6891 15.4557 10.6327 15.368 10.6015C15.2114 10.5514 15.0548 10.4951 14.8919 10.4388C14.7541 10.3887 14.6914 10.3199 14.6914 10.2072C14.6914 10.1009 14.7541 10.0258 14.8981 9.97571C15.0548 9.91939 15.2114 9.86308 15.3743 9.81302C15.4683 9.78173 15.5246 9.72541 15.556 9.63155C15.6123 9.4626 15.675 9.29991 15.7314 9.13721C15.7752 9.01832 15.8504 8.96826 15.9569 8.96826H15.9632Z"
            fill="#164CA4" />
    </g>
    <defs>
        <clipPath id="clip0_548_4475">
            <rect width="21" height="21" fill="white" transform="translate(0 0.26416)" />
        </clipPath>
    </defs>
</svg>