<svg xmlns="http://www.w3.org/2000/svg" width="93" height="92" viewBox="0 0 93 92" fill="none">
    <text x="50%" y="50%" text-anchor="middle" dominant-baseline="middle" stroke="#164CA4">02</text> 
    <g clip-path="url(#clip0_562_2456)">
        <path
            d="M0 35.7305L0.44749 33.3235L10.8241 35.303L10.3766 37.7101L9.50105 37.5457C10.1107 38.2362 10.3571 39.1438 10.169 40.1631C9.79289 42.1756 7.95753 43.3199 5.58389 42.8661C3.21025 42.4123 1.90669 40.6827 2.27636 38.6703C2.46444 37.6509 3.03515 36.9012 3.8523 36.4671L0 35.7305ZM6.69937 36.8683C5.52552 36.6447 4.62406 37.2037 4.4295 38.2559C4.23494 39.3082 4.87699 40.1631 6.04435 40.3868C7.2182 40.6104 8.11967 40.0513 8.31423 38.9991C8.50879 37.9468 7.87322 37.0919 6.69937 36.8683Z"
            fill="#164CA4" />
        <path
            d="M8.72274 26.609C9.35182 26.872 9.92902 27.2929 10.3635 27.7927L9.41668 30.1274C9.01458 29.6276 8.63843 29.2725 8.21688 29.0949C7.68508 28.8713 7.23111 28.9963 7.04952 29.4369C6.79659 30.0617 7.33488 30.8311 8.46333 31.2981L11.92 32.7449L10.9991 35.0073L4.02734 32.0938L4.94826 29.8315L6.08969 30.3116C5.3763 29.6145 5.1558 28.6806 5.54492 27.7204C6.05078 26.4774 7.28299 26.0171 8.71626 26.6155L8.72274 26.609Z"
            fill="#164CA4" />
        <path
            d="M15.7657 20.7557C16.8942 22.071 16.985 23.919 15.8371 25.6618C14.4557 27.7598 12.2312 28.2201 10.2208 26.8654C8.2103 25.504 7.79524 23.2219 9.15068 21.1569C10.7136 18.7761 13.431 18.5394 14.9551 20.6307L12.0691 25.0239C12.9187 25.4119 13.6515 25.2672 14.1768 24.4649C14.527 23.9322 14.5789 23.4126 14.313 22.9589L15.7593 20.7557H15.7657ZM10.9601 24.2347L12.5166 21.8671C11.9588 21.3936 11.2908 21.4989 10.7915 22.2617C10.3505 22.9391 10.3959 23.6099 10.9601 24.2347Z"
            fill="#164CA4" />
        <path
            d="M20.0267 14.008L23.01 17.0859L21.5054 18.5853L20.6039 17.658C20.9022 18.7761 20.6169 19.8086 19.7284 20.703C18.5091 21.9131 17.1602 21.8473 16.2717 20.9332C15.1951 19.8217 15.5259 18.1973 17.0629 16.665C17.452 16.277 17.88 15.935 18.2562 15.6719C17.653 15.0734 16.9915 14.8696 16.3365 15.5272C15.8955 15.9679 15.8372 16.4085 16.2392 16.7176L14.553 18.4012C13.0225 17.395 13.5024 15.5009 14.9551 14.0541C16.6738 12.3376 18.5091 12.4362 20.0332 14.008H20.0267ZM19.4041 16.7965C18.989 17.0201 18.5805 17.3621 18.3081 17.6317C17.5882 18.3486 17.5428 18.8024 17.8606 19.1312C18.1654 19.4469 18.5545 19.368 18.9307 18.9865C19.5014 18.4209 19.657 17.5988 19.4041 16.7965Z"
            fill="#164CA4" />
        <path
            d="M30.9351 6.84613L33.1856 10.8447L31.0908 12.0548L28.8404 8.05623C28.4837 7.4183 27.9454 7.14866 27.446 7.43145C26.765 7.82605 26.6678 8.79938 27.2579 9.84506L29.1322 13.1794L27.0374 14.3895L24.787 10.3909C24.3979 9.70038 23.8531 9.41758 23.3343 9.72011C22.6793 10.1015 22.5366 11.1143 23.1786 12.2587L25.0335 15.5535L22.9387 16.7636L19.2031 10.1213L21.2979 8.91118L21.9529 10.0818C21.8297 9.02956 22.3291 8.0365 23.2435 7.50379C24.1709 6.96451 25.228 7.07631 25.9674 7.74055C25.8247 6.7146 26.2333 5.77415 27.2255 5.19541C28.5874 4.40622 29.8975 5.00469 30.9286 6.83956L30.9351 6.84613Z"
            fill="#164CA4" />
        <path
            d="M30.5262 1.80864C30.2863 1.06549 30.6624 0.315754 31.3953 0.0724197C32.1281 -0.170914 32.8675 0.210528 33.1074 0.953684C33.3474 1.69684 32.9712 2.44657 32.2384 2.68991C31.5055 2.93324 30.7662 2.5518 30.5262 1.80864ZM33.6716 11.1606L31.3369 3.89342L33.6327 3.13711L35.9675 10.4043L33.6716 11.1606Z"
            fill="#164CA4" />
        <path
            d="M42.8551 4.47865L43.5945 8.86524L41.2143 9.27299L40.475 4.8864C40.3842 4.34054 40.2286 3.43954 39.2363 3.61054C38.4321 3.74864 37.9976 4.69567 38.2051 5.94523L38.8342 9.68731L36.4541 10.0951L35.1895 2.5517L37.5696 2.14396L37.7836 3.42639C37.9976 2.4136 38.7499 1.69017 39.8654 1.49945C42.2909 1.07855 42.706 3.55135 42.8616 4.47207L42.8551 4.47865Z"
            fill="#164CA4" />
        <path
            d="M51.0719 9.68741C51.02 11.325 49.2819 12.3378 47.2325 12.272C45.1961 12.2062 43.6461 11.1014 43.3867 9.33228L46.0263 9.41777C46.13 9.91102 46.5775 10.1872 47.2844 10.207C47.9784 10.2333 48.575 9.98994 48.5945 9.45723C48.6074 8.98372 48.1535 8.58255 47.038 8.54966C46.4024 8.52993 45.5853 8.622 44.9173 8.77327L44.9627 7.35272C46.2792 7.26065 47.1936 6.9384 47.8162 6.46488C47.4984 6.53065 47.1612 6.56353 46.785 6.55038C44.9302 6.49119 43.698 5.42578 43.7499 3.82109C43.8018 2.12433 45.274 1.00631 47.4271 1.07865C48.5555 1.11811 49.4505 1.45352 50.0537 2.00595C50.1769 1.55216 50.1315 0.99973 50.0277 0.460449L51.688 0.513062C51.8242 1.43379 51.461 2.49919 50.806 3.16343C50.9032 3.43965 50.9357 3.76848 50.9292 4.08415C50.8903 5.29425 50.125 6.49119 48.776 7.30669C50.2288 7.59606 51.1237 8.47074 51.0848 9.69399L51.0719 9.68741ZM47.3039 4.82073C47.9654 4.84046 48.4129 4.51821 48.4323 4.01839C48.4518 3.51199 48.0237 3.16343 47.3558 3.1437C46.6942 3.12397 46.2468 3.44622 46.2273 3.94605C46.2078 4.45244 46.6359 4.801 47.3039 4.82073Z"
            fill="#164CA4" />
        <path
            d="M78.5314 11.1474L80.3473 12.7586L73.4015 20.8215L71.5856 19.2103L72.1692 18.5329C71.2743 18.717 70.3793 18.4737 69.6075 17.7897C68.0835 16.4415 68.0446 14.2515 69.6335 12.4101C71.2224 10.5686 73.3561 10.299 74.8736 11.6538C75.6454 12.3377 75.9956 13.2124 75.9502 14.1463L78.5314 11.1539V11.1474ZM74.1667 16.4218C74.9515 15.5142 74.932 14.4422 74.1408 13.732C73.3431 13.0283 72.2989 13.1532 71.5142 14.0608C70.7295 14.9684 70.7489 16.0404 71.5402 16.7506C72.3379 17.4543 73.3885 17.3294 74.1667 16.4218Z"
            fill="#164CA4" />
        <path
            d="M81.8647 23.3733C81.3264 23.7876 80.6714 24.0836 80.0294 24.2151L78.5248 22.2092C79.1539 22.1106 79.6467 21.9593 80.0034 21.6831C80.4574 21.328 80.5871 20.8676 80.3018 20.4927C79.8997 19.96 78.9723 20.039 77.9995 20.7887L75.0227 23.0839L73.5635 21.1372L79.5624 16.5073L81.0216 18.454L80.0359 19.2103C80.9892 18.9407 81.8972 19.2103 82.5197 20.0455C83.3239 21.1175 83.0905 22.4263 81.8582 23.3799L81.8647 23.3733Z"
            fill="#164CA4" />
        <path
            d="M83.2848 32.4753C81.5921 32.8041 79.9773 31.9492 79.0693 30.0682C77.9798 27.7993 78.7061 25.6159 80.8722 24.5439C83.0384 23.4719 85.198 24.2545 86.2745 26.484C87.5133 29.0555 86.3524 31.5546 83.7971 31.8308L81.5143 27.0891C80.7555 27.6349 80.5091 28.3518 80.9306 29.2199C81.2095 29.7986 81.6245 30.1011 82.1434 30.1011L83.2913 32.4819L83.2848 32.4753ZM82.7465 26.5103L83.9787 29.0686C84.6597 28.8187 84.9126 28.1808 84.517 27.3587C84.1668 26.6287 83.5702 26.3327 82.753 26.5103H82.7465Z"
            fill="#164CA4" />
        <path
            d="M86.8649 39.6175L82.7402 40.6697L82.2279 38.5915L83.4731 38.2758C82.3706 37.9733 81.6377 37.1973 81.3329 35.9674C80.9178 34.2904 81.6572 33.1395 82.8894 32.8238C84.381 32.4424 85.5873 33.5538 86.1191 35.6781C86.2553 36.2108 86.3266 36.7632 86.3655 37.2236C87.1827 37 87.6821 36.5265 87.4616 35.6189C87.3124 35.0138 86.9622 34.7376 86.5017 34.9349L85.9245 32.6068C87.5524 31.7782 88.9208 33.1527 89.4201 35.152C90.0103 37.5261 88.9921 39.0782 86.8908 39.6175H86.8649ZM84.8091 37.6642C84.8285 37.1841 84.7442 36.658 84.6534 36.2831C84.407 35.2901 84.0438 35.0204 83.6028 35.1322C83.1812 35.244 83.058 35.6189 83.1812 36.1384C83.3758 36.9276 83.9984 37.4735 84.8026 37.6642H84.8091Z"
            fill="#164CA4" />
        <path
            d="M87.403 52.7771L82.8633 52.6982L82.9022 50.2517L87.4419 50.3306C88.1683 50.3438 88.6677 50.015 88.6807 49.4362C88.6936 48.6404 87.9154 48.0617 86.7286 48.042L82.9411 47.9762L82.98 45.5297L87.5198 45.6086C88.3045 45.6218 88.8233 45.293 88.8298 44.6813C88.8428 43.9185 88.0516 43.2739 86.7545 43.2542L83.0124 43.195L83.0514 40.7485L90.5938 40.8735L90.5549 43.32L89.2254 43.3003C90.1853 43.7277 90.7689 44.6748 90.756 45.7402C90.7365 46.8253 90.1074 47.6868 89.1671 47.9959C90.1139 48.3905 90.7041 49.2323 90.6846 50.3898C90.6587 51.9814 89.4848 52.8166 87.403 52.7837V52.7771Z"
            fill="#164CA4" />
        <path
            d="M82.3834 53.0007L89.7508 54.6252L89.2385 57.019L81.8711 55.3946L82.3834 53.0073V53.0007ZM91.9299 54.9671C92.6822 55.1316 93.1297 55.8418 92.9675 56.6047C92.8054 57.3676 92.105 57.8214 91.3527 57.657C90.6004 57.4925 90.1529 56.7823 90.315 56.0194C90.4772 55.2565 91.1776 54.8027 91.9299 54.9671Z"
            fill="#164CA4" />
        <path
            d="M83.4408 64.4112L79.3291 62.8459L80.1787 60.5573L84.2904 62.1225C84.7963 62.3132 85.6458 62.6421 86.0025 61.6819C86.2879 60.9058 85.7042 60.0509 84.5368 59.6037L81.0347 58.2686L81.8843 55.98L88.9469 58.6764L88.0973 60.965L86.8975 60.5047C87.6563 61.2018 87.8898 62.2212 87.4877 63.2997C86.6186 65.6344 84.3034 64.7532 83.4473 64.4243L83.4408 64.4112Z"
            fill="#164CA4" />
        <path
            d="M74.835 68.9555C73.4731 68.0809 73.4925 66.0487 74.5886 64.2927C75.6781 62.5499 77.4032 61.7542 79.0375 62.425L77.6237 64.6873C77.1503 64.5295 76.6898 64.7794 76.3137 65.3844C75.944 65.9763 75.8467 66.6208 76.2877 66.9102C76.6833 67.1601 77.254 66.9694 77.8507 66.0092C78.1879 65.4634 78.5252 64.7005 78.7392 64.0428L79.926 64.8057C79.3423 66.0026 79.1478 66.9694 79.2321 67.7454C79.3358 67.4298 79.4785 67.1272 79.6796 66.7984C80.6718 65.2069 82.2024 64.6742 83.5448 65.5291C84.9587 66.4367 85.1597 68.2847 84.0053 70.1327C83.4022 71.0995 82.6628 71.7111 81.8846 71.961C82.2089 72.2964 82.7017 72.5398 83.2141 72.7239L82.3256 74.1445C81.4695 73.7959 80.7561 72.941 80.5227 72.0268C80.2373 71.9676 79.9455 71.8361 79.6796 71.6651C78.6743 71.0206 78.0388 69.7447 78.0323 68.1466C77.0465 69.2712 75.8532 69.6066 74.835 68.9555ZM80.8858 68.1335C80.5291 68.7056 80.5745 69.2581 80.9961 69.5277C81.4176 69.7973 81.93 69.6 82.2867 69.0345C82.6434 68.4689 82.598 67.9099 82.1764 67.6402C81.7549 67.3706 81.2425 67.5613 80.8858 68.1335Z"
            fill="#164CA4" />
        <path
            d="M63.2385 91.0399L61.014 92.0001L56.8828 82.1418L59.1008 81.1816L59.451 82.0102C59.6845 81.1092 60.2876 80.4056 61.228 79.9978C63.0893 79.1955 65.0479 80.1162 65.9883 82.3654C66.9351 84.6211 66.2347 86.6796 64.3799 87.482C63.433 87.8897 62.5056 87.824 61.6949 87.3767L63.232 91.0399H63.2385ZM60.4562 84.7593C60.9232 85.8707 61.883 86.3245 62.8558 85.9036C63.8286 85.4827 64.1724 84.4699 63.7054 83.3584C63.2385 82.247 62.2786 81.7932 61.3058 82.2141C60.333 82.635 59.9893 83.6478 60.4562 84.7593Z"
            fill="#164CA4" />
        <path
            d="M50.9291 88.7445C50.7929 88.0671 50.8188 87.3503 50.9875 86.7058L53.426 86.2125C53.2379 86.8242 53.1601 87.3437 53.2444 87.7909C53.3546 88.3631 53.7113 88.6788 54.1718 88.5867C54.8203 88.4552 55.1575 87.5739 54.9176 86.3572L54.1847 82.6349L56.5519 82.1548L58.0306 89.6587L55.6634 90.1388L55.4234 88.909C55.2483 89.8954 54.6063 90.6057 53.5946 90.8096C52.291 91.0727 51.2274 90.29 50.9226 88.7445H50.9291Z"
            fill="#164CA4" />
        <path
            d="M42.2646 86.114C42.6927 84.4238 44.1324 83.2992 46.2013 83.2663C48.6916 83.2269 50.3324 84.8184 50.3713 87.2649C50.4103 89.7114 48.7954 91.3621 46.3504 91.4016C43.5293 91.4476 41.7912 89.3168 42.6278 86.8572L47.8291 86.7717C47.6605 85.8378 47.1287 85.3117 46.1753 85.3314C45.5398 85.3445 45.0923 85.5945 44.8782 86.0746L42.2711 86.1206L42.2646 86.114ZM47.8161 88.1462L45.008 88.1922C44.9431 88.9288 45.4036 89.422 46.3115 89.4089C47.1092 89.3957 47.6345 88.9748 47.8161 88.1462Z"
            fill="#164CA4" />
        <path
            d="M34.3396 86.2192L35.2022 81.9971L37.271 82.4311L37.0116 83.707C37.7574 82.8323 38.7691 82.4969 39.9948 82.7534C41.6616 83.1019 42.362 84.2792 42.1091 85.5419C41.7978 87.0676 40.2867 87.6924 38.1724 87.2518C37.6406 87.14 37.1218 86.969 36.6938 86.8046C36.5381 87.6464 36.7392 88.3106 37.6406 88.5013C38.2438 88.6263 38.6394 88.429 38.6653 87.9226L40.9871 88.4092C41.013 90.2573 39.1971 90.9084 37.2061 90.494C34.839 90.0008 33.9051 88.3961 34.3461 86.239L34.3396 86.2192ZM36.9662 85.1933C37.3812 85.4235 37.8871 85.5747 38.2568 85.6537C39.249 85.8575 39.6446 85.6537 39.7354 85.1999C39.8262 84.7658 39.5409 84.4896 39.022 84.3778C38.2373 84.2134 37.4785 84.5422 36.9597 85.1999L36.9662 85.1933Z"
            fill="#164CA4" />
        <path
            d="M22.3943 80.9776L24.4307 76.8672L26.5903 77.9655L24.5539 82.0759C24.2297 82.7335 24.301 83.332 24.8134 83.595C25.5138 83.9502 26.3634 83.4964 26.9016 82.4178L28.6008 78.9849L30.7539 80.0831L28.7175 84.1935C28.3673 84.9038 28.4322 85.522 28.9705 85.7916C29.6449 86.1336 30.5529 85.693 31.1366 84.5158L32.8163 81.1288L34.9759 82.2271L31.5906 89.0602L29.4309 87.9619L30.0276 86.7584C29.2299 87.4489 28.1339 87.5739 27.1935 87.0938C26.2337 86.6071 25.7472 85.6535 25.8834 84.6605C25.1182 85.351 24.1194 85.5286 23.0947 85.0024C21.6939 84.2856 21.4604 82.8519 22.3943 80.9644V80.9776Z"
            fill="#164CA4" />
        <path
            d="M18.4897 84.1212C18.0162 84.7328 17.1861 84.8315 16.583 84.3514C15.9798 83.8713 15.8826 83.0295 16.356 82.4179C16.8294 81.8062 17.6595 81.7076 18.2627 82.1877C18.8658 82.6678 18.9631 83.5096 18.4897 84.1212ZM24.4173 76.2753L19.7478 82.2797L17.8541 80.7671L22.5236 74.7627L24.4173 76.2753Z"
            fill="#164CA4" />
        <path
            d="M13.8398 72.2571L17.0241 69.1924L18.6844 70.9681L15.5001 74.0328C15.1045 74.4142 14.4494 75.0456 15.1434 75.7887C15.7011 76.3872 16.7193 76.2293 17.6273 75.3547L20.3446 72.7437L22.0049 74.5194L16.5312 79.7807L14.871 78.005L15.7984 77.1106C14.8515 77.4986 13.8398 77.2619 13.0616 76.4332C11.3689 74.6247 13.1653 72.895 13.8333 72.2571H13.8398Z"
            fill="#164CA4" />
        <path
            d="M13.5413 62.4382C14.9097 61.5701 16.7061 62.4711 17.7957 64.2402C18.8722 65.9962 18.8268 67.9165 17.5233 69.1201L16.1289 66.8445C16.4726 66.4828 16.4532 65.9567 16.077 65.3451C15.7074 64.7466 15.1821 64.3783 14.7346 64.6611C14.339 64.911 14.2676 65.5161 14.8578 66.4763C15.195 67.0221 15.7268 67.66 16.2197 68.1401L15.0264 68.8899C14.2157 67.831 13.444 67.2391 12.7176 66.9827C12.9511 67.2128 13.1651 67.4759 13.3597 67.7982C14.339 69.3963 14.1509 71.0273 12.8084 71.8756C11.3881 72.7766 9.65654 72.1519 8.51511 70.2973C7.91846 69.3239 7.69147 68.3835 7.8147 67.568C7.37369 67.7192 6.94566 68.0612 6.56302 68.4492L5.6875 67.0221C6.36846 66.3908 7.43855 66.1145 8.35298 66.2921C8.52809 66.0554 8.77453 65.8449 9.04043 65.6739C10.0521 65.036 11.4595 65.0097 12.8798 65.7002C12.309 64.3126 12.5295 63.0762 13.5542 62.4251L13.5413 62.4382ZM11.6475 68.3243C11.2973 67.7521 10.785 67.5548 10.3634 67.8245C9.94189 68.0941 9.89001 68.6465 10.2402 69.2187C10.5904 69.7909 11.1028 69.9882 11.5243 69.7185C11.9459 69.4489 11.9977 68.8964 11.6475 68.3243Z"
            fill="#164CA4" />
        <path
            d="M61.4291 8.81911C61.9736 8.81911 62.4149 8.37155 62.4149 7.81947C62.4149 7.26738 61.9736 6.81982 61.4291 6.81982C60.8847 6.81982 60.4434 7.26738 60.4434 7.81947C60.4434 8.37155 60.8847 8.81911 61.4291 8.81911Z"
            fill="#164CA4" />
        <path
            d="M72.6684 78.1167C73.2128 78.1167 73.6542 77.6692 73.6542 77.1171C73.6542 76.565 73.2128 76.1174 72.6684 76.1174C72.124 76.1174 71.6826 76.565 71.6826 77.1171C71.6826 77.6692 72.124 78.1167 72.6684 78.1167Z"
            fill="#164CA4" />
        <path
            d="M6.64788 53.8425C7.19231 53.8425 7.63366 53.395 7.63366 52.8429C7.63366 52.2908 7.19231 51.8433 6.64788 51.8433C6.10346 51.8433 5.66211 52.2908 5.66211 52.8429C5.66211 53.395 6.10346 53.8425 6.64788 53.8425Z"
            fill="#164CA4" />
    </g>
    <defs>
        <clipPath id="clip0_562_2456">
            <rect width="93" height="92" fill="white" />
        </clipPath>
    </defs>
</svg>