<svg width="163" height="163" viewBox="0 0 163 163" fill="none" xmlns="http://www.w3.org/2000/svg">
    <g clip-path="url(#clip0_329_3769)">
        <path
            d="M81.5 162.984C126.502 162.984 162.983 126.502 162.983 81.5003C162.983 36.4982 126.502 0.0168457 81.5 0.0168457C36.498 0.0168457 0.0166016 36.4982 0.0166016 81.5003C0.0166016 126.502 36.498 162.984 81.5 162.984Z"
            fill="#164CA4" />
        <path
            d="M94.4742 124.234C70.9115 131.384 45.9238 118.037 38.7738 94.4744C31.6238 70.9117 44.971 45.924 68.5337 38.774C92.0963 31.624 117.084 44.9713 124.234 68.5339C131.384 92.0966 118.037 117.084 94.4742 124.234ZM69.4036 41.6407C47.4234 48.3101 34.971 71.6242 41.6404 93.6128C48.3099 115.593 71.624 128.045 93.6125 121.376C115.593 114.706 128.045 91.3924 121.376 69.4038C114.706 47.4236 91.3921 34.9712 69.4119 41.6407H69.4036Z"
            fill="#FAF1E8" />
        <path
            d="M105.577 62.6848L101.724 63.3062C102.917 70.7296 94.226 79.462 81.9393 83.1903C70.158 86.7694 58.1944 84.5656 54.7064 78.1778L51.2764 80.0503C51.674 80.7876 52.1546 81.4753 52.6931 82.1298L55.568 84.7727C58.1861 86.6286 61.5415 87.8796 65.3527 88.4679L63.8696 100.73L68.1116 101.243L69.6112 88.8407C73.2235 88.9318 77.1009 88.4927 81.0694 87.4737L85.0462 100.581L89.0313 99.371L85.0545 86.264C88.8325 84.9301 92.2459 83.1737 95.1623 81.1273L103.265 90.564L106.504 87.7802L98.5011 78.4595C101.376 75.8414 103.505 72.9251 104.682 69.9342L105.643 66.1479C105.775 64.988 105.759 63.8198 105.577 62.6765V62.6848Z"
            fill="#FAF1E8" />
        <path
            d="M8.86546 86.9018L8.46777 83.2066L24.6153 81.4502L25.0213 85.1453L23.6625 85.2945C24.8639 86.0235 25.6261 87.2249 25.7918 88.799C26.1315 91.8894 23.9277 94.3749 20.2325 94.7726C16.5374 95.1702 13.8531 93.2481 13.5217 90.1578C13.3477 88.5919 13.8613 87.2497 14.8721 86.2555L8.87374 86.91L8.86546 86.9018ZM19.2218 85.5596C17.3991 85.7584 16.3137 86.9763 16.496 88.5836C16.67 90.1992 17.9873 91.152 19.81 90.9531C21.6327 90.7543 22.7181 89.5364 22.5358 87.9208C22.3618 86.3052 21.0445 85.3525 19.2218 85.5513V85.5596Z"
            fill="#FAF1E8" />
        <path
            d="M17.6892 69.7849C18.7248 69.8843 19.7688 70.2405 20.6221 70.7708L20.2493 74.5819C19.4374 74.0351 18.7248 73.6871 18.0372 73.6208C17.159 73.538 16.5376 73.9191 16.4713 74.6316C16.3719 75.6507 17.4987 76.5289 19.3711 76.7029L25.096 77.258L24.7398 80.9531L13.1904 79.8346L13.5467 76.1395L15.444 76.3218C14.0852 75.6341 13.3478 74.3665 13.497 72.8006C13.6958 70.7708 15.3031 69.5529 17.6809 69.7766L17.6892 69.7849Z"
            fill="#FAF1E8" />
        <path
            d="M25.4683 58.1526C27.7136 59.5528 28.6581 62.1957 27.7384 65.2363C26.6282 68.8983 23.5628 70.5636 20.0085 69.4948C16.4542 68.4261 14.8303 65.2943 15.9157 61.6903C17.1667 57.5395 21.0607 55.9736 24.2256 58.3349L21.914 65.9985C23.3391 66.1808 24.3498 65.6423 24.7724 64.2421C25.0541 63.3059 24.8966 62.5354 24.3084 61.9969L25.4683 58.1526ZM19.9256 65.3523L21.1684 61.2181C20.1327 60.7872 19.2048 61.2346 18.7989 62.5602C18.4426 63.7367 18.8071 64.6978 19.9173 65.344L19.9256 65.3523Z"
            fill="#FAF1E8" />
        <path
            d="M28.7749 46.4376L34.5247 49.5694L32.9671 52.4195L31.2355 51.475C32.1717 52.958 32.2049 54.5901 31.2852 56.2803C30.0342 58.5835 28.0043 59.0889 26.2976 58.161C24.2181 57.0259 23.9944 54.5321 25.5851 51.6158C25.9828 50.8784 26.4633 50.1908 26.9024 49.6357C25.7508 49.0309 24.6903 49.0392 24.011 50.2819C23.5553 51.1187 23.663 51.7898 24.3921 52.0466L22.6522 55.2447C19.9596 54.4659 19.827 51.5081 21.3266 48.7575C23.1079 45.5014 25.8502 44.8303 28.7831 46.4294L28.7749 46.4376ZM29.0897 50.7542C28.576 51.2678 28.1203 51.9472 27.8469 52.4526C27.1013 53.8196 27.2338 54.499 27.8469 54.8304C28.4352 55.1535 28.9654 54.8635 29.3548 54.1427C29.943 53.0657 29.8105 51.7981 29.0897 50.7459V50.7542Z"
            fill="#FAF1E8" />
        <path
            d="M41.6824 31.16L46.7528 35.9653L44.201 38.6662L39.1306 33.8609C38.3186 33.0987 37.4156 32.9413 36.8108 33.5792C35.9823 34.4574 36.2639 35.9073 37.5978 37.1666L41.8315 41.1683L39.2797 43.861L34.2093 39.0556C33.331 38.2271 32.4114 38.0531 31.7734 38.7242C30.9781 39.5693 31.2184 41.102 32.6682 42.4774L36.8439 46.4376L34.2921 49.1385L25.8662 41.16L28.418 38.4674L29.901 39.8758C29.2548 38.4011 29.5531 36.7358 30.6715 35.5511C31.8066 34.3497 33.4056 34.0515 34.7809 34.6811C34.1181 33.2561 34.3087 31.7068 35.5183 30.4226C37.1753 28.6662 39.3708 28.9562 41.6989 31.16H41.6824Z"
            fill="#FAF1E8" />
        <path
            d="M38.8736 24.0182C38.1942 23.0489 38.4179 21.7895 39.3873 21.1102C40.3566 20.4308 41.6159 20.6545 42.2953 21.6238C42.9747 22.5932 42.751 23.8525 41.7816 24.5319C40.8123 25.2113 39.553 24.9876 38.8736 24.0182ZM47.6226 36.1972L40.978 26.6777L44.0269 24.5484L50.6715 34.068L47.6226 36.1972Z"
            fill="#FAF1E8" />
        <path
            d="M58.1776 22.4028L61.2017 28.4426L57.8794 30.1079L54.8553 24.0681C54.4825 23.3225 53.8611 22.0714 52.4692 22.7674C51.3508 23.3308 51.1188 24.8966 51.9804 26.6199L54.5571 31.7649L51.2348 33.4302L46.04 23.0491L49.3623 21.3921L50.2488 23.1568C50.1163 21.5909 50.9034 20.2073 52.4609 19.4285C55.8412 17.7384 57.548 21.1435 58.1859 22.4111L58.1776 22.4028Z"
            fill="#FAF1E8" />
        <path
            d="M72.5697 26.305C73.2159 28.7076 71.1032 30.9529 68.0543 31.7731C65.0303 32.585 62.2548 31.6737 61.0949 29.2213L65.022 28.1691C65.3948 28.8402 66.1653 29.039 67.2258 28.7573C68.2614 28.4839 69.0319 27.8626 68.8165 27.0755C68.6343 26.3795 67.7809 26.0067 66.1239 26.4541C65.1794 26.7109 64.0195 27.208 63.0999 27.7217L62.5365 25.6339C64.4337 24.9131 65.6434 24.0349 66.3476 23.0738C65.9085 23.3141 65.428 23.5129 64.8729 23.662C62.1139 24.3994 59.8273 23.4052 59.1976 21.0523C58.5348 18.5667 60.2001 16.2884 63.4064 15.4267C65.0883 14.9793 66.5547 15.0622 67.6815 15.6007C67.6566 14.8882 67.3501 14.1011 66.9607 13.3637L69.4296 12.7009C70.0344 13.9768 69.9682 15.6835 69.2888 16.9429C69.5539 17.3074 69.7445 17.7548 69.877 18.2271C70.3493 20.0001 69.761 22.0796 68.1206 23.8609C70.3907 23.6372 72.0891 24.4988 72.5697 26.2967V26.305ZM64.8729 20.9197C65.8588 20.6546 66.3807 19.9835 66.1819 19.2461C65.983 18.5087 65.2043 18.1856 64.2183 18.4508C63.2324 18.7159 62.7105 19.3787 62.9093 20.1243C63.1081 20.8617 63.8869 21.1848 64.8729 20.9197Z"
            fill="#FAF1E8" />
        <path
            d="M113.663 16.1558L117.052 17.6802L110.366 32.4939L106.977 30.9694L107.541 29.7184C106.298 30.3812 104.881 30.4309 103.44 29.7764C100.606 28.5005 99.5871 25.3356 101.112 21.9553C102.636 18.5667 105.66 17.2328 108.494 18.517C109.935 19.1632 110.83 20.2817 111.178 21.6653L113.663 16.164V16.1558ZM109.554 25.7581C110.308 24.0845 109.811 22.5352 108.328 21.8724C106.845 21.2014 105.353 21.8559 104.6 23.5295C103.846 25.203 104.343 26.7523 105.826 27.4151C107.309 28.0862 108.8 27.4317 109.554 25.7581Z"
            fill="#FAF1E8" />
        <path
            d="M123.945 32.4193C123.332 33.2643 122.504 33.9768 121.617 34.4574L118.518 32.2121C119.397 31.7896 120.059 31.3505 120.465 30.7871C120.979 30.0746 120.963 29.3455 120.383 28.923C119.554 28.3264 118.228 28.8567 117.127 30.3728L113.755 35.0373L110.747 32.8584L117.541 23.4548L120.548 25.6255L119.43 27.1665C120.714 26.3463 122.172 26.3463 123.448 27.266C125.105 28.459 125.345 30.464 123.945 32.4027V32.4193Z"
            fill="#FAF1E8" />
        <path
            d="M130.051 45.0044C127.706 46.2306 124.948 45.7169 122.785 43.3888C120.184 40.5802 120.291 37.0921 123.017 34.5652C125.735 32.0383 129.264 32.2205 131.816 34.9712C134.765 38.1526 134.152 42.3034 130.515 43.8362L125.072 37.9704C124.194 39.1054 124.152 40.2488 125.146 41.3175C125.809 42.03 126.555 42.2869 127.317 42.0549L130.051 44.9961V45.0044ZM126.638 36.5868L129.571 39.7516C130.465 39.0806 130.557 38.0449 129.604 37.0259C128.767 36.1228 127.756 35.9571 126.629 36.5868H126.638Z"
            fill="#FAF1E8" />
        <path
            d="M138.476 53.803L132.859 57.1668L131.186 54.383L132.876 53.3722C131.119 53.4219 129.694 52.6265 128.708 50.9778C127.358 48.7326 127.946 46.7276 129.62 45.7251C131.65 44.5072 133.92 45.5843 135.626 48.426C136.057 49.1385 136.405 49.9091 136.662 50.5636C137.764 49.8759 138.303 48.9563 137.573 47.7467C137.085 46.9264 136.455 46.6862 135.858 47.1833L133.986 44.0598C136.024 42.1377 138.642 43.513 140.249 46.2056C142.163 49.3871 141.343 52.0963 138.485 53.8113L138.476 53.803ZM134.591 51.8809C134.409 51.1767 134.052 50.4476 133.754 49.9505C132.95 48.6166 132.304 48.3846 131.708 48.7409C131.128 49.0888 131.111 49.6936 131.534 50.3896C132.163 51.4418 133.323 51.972 134.591 51.8809Z"
            fill="#FAF1E8" />
        <path
            d="M145.055 72.6515L138.336 74.5736L137.317 71.0027L144.028 69.0806C145.096 68.7741 145.693 68.0698 145.453 67.2247C145.121 66.0648 143.721 65.5677 141.965 66.0731L136.364 67.6721L135.345 64.1013L142.064 62.1792C143.224 61.8478 143.845 61.1435 143.588 60.2487C143.274 59.1303 141.824 58.5586 139.91 59.1054L134.376 60.6878L133.356 57.117L144.508 53.9272L145.527 57.4981L143.564 58.0615C145.163 58.252 146.447 59.3622 146.894 60.9198C147.35 62.5023 146.795 64.035 145.544 64.8967C147.11 65.0541 148.344 65.9986 148.833 67.697C149.496 70.0168 148.137 71.7567 145.055 72.6349V72.6515Z"
            fill="#FAF1E8" />
        <path
            d="M137.756 75.2281L149.322 74.3084L149.62 78.0118L138.054 78.9315L137.756 75.2363V75.2281ZM152.677 73.8279C153.854 73.7368 154.831 74.5653 154.922 75.7417C155.014 76.9182 154.185 77.8958 153.009 77.987C151.832 78.0781 150.855 77.2496 150.763 76.0731C150.672 74.8967 151.501 73.919 152.677 73.8279Z"
            fill="#FAF1E8" />
        <path
            d="M144.326 91.3093L137.59 90.8619L137.83 87.1585L144.566 87.6059C145.403 87.6639 146.786 87.755 146.894 86.1975C146.977 84.9464 145.742 83.9605 143.82 83.8279L138.079 83.4468L138.327 79.7434L149.901 80.5139L149.653 84.2173L147.681 84.0848C149.098 84.7559 149.893 86.1395 149.777 87.871C149.529 91.6407 145.734 91.3922 144.317 91.301L144.326 91.3093Z"
            fill="#FAF1E8" />
        <path
            d="M133.655 101.757C131.26 101.094 130.399 98.1279 131.236 95.0873C132.072 92.0633 134.268 90.1412 136.969 90.3897L135.883 94.3085C135.121 94.292 134.55 94.8554 134.26 95.9076C133.978 96.9349 134.11 97.9125 134.898 98.1279C135.593 98.3185 136.347 97.78 136.803 96.123C137.06 95.1868 137.217 93.9274 137.242 92.8752L139.322 93.4552C138.982 95.4602 139.131 96.9432 139.595 98.0368C139.612 97.5397 139.686 97.026 139.835 96.4627C140.598 93.712 142.619 92.2456 144.964 92.9001C147.449 93.5877 148.56 96.181 147.673 99.379C147.209 101.061 146.389 102.279 145.353 102.975C145.983 103.314 146.811 103.447 147.64 103.488L146.961 105.949C145.552 105.825 144.119 104.897 143.373 103.679C142.926 103.729 142.437 103.662 141.973 103.53C140.208 103.041 138.717 101.467 138.004 99.1553C137.043 101.227 135.436 102.254 133.647 101.757H133.655ZM142.205 97.8628C141.932 98.8487 142.246 99.6358 142.984 99.8347C143.721 100.042 144.392 99.5281 144.666 98.5422C144.939 97.5563 144.624 96.7692 143.887 96.5704C143.149 96.3632 142.478 96.8769 142.205 97.8628Z"
            fill="#FAF1E8" />
        <path
            d="M126.281 138.99L123.431 141.368L113.025 128.899L115.875 126.521L116.754 127.573C116.696 126.165 117.276 124.872 118.485 123.861C120.871 121.873 124.16 122.329 126.538 125.179C128.916 128.029 128.8 131.326 126.414 133.323C125.204 134.334 123.804 134.649 122.421 134.367L126.29 138.998L126.281 138.99ZM119.43 131.111C120.606 132.519 122.214 132.743 123.465 131.707C124.707 130.663 124.774 129.04 123.605 127.631C122.429 126.223 120.822 125.999 119.571 127.035C118.328 128.079 118.262 129.702 119.438 131.111H119.43Z"
            fill="#FAF1E8" />
        <path
            d="M107.151 141.136C106.662 140.216 106.38 139.156 106.339 138.145L109.711 136.339C109.711 137.316 109.81 138.103 110.142 138.717C110.556 139.495 111.219 139.802 111.857 139.462C112.76 138.982 112.859 137.557 111.981 135.9L109.263 130.829L112.536 129.081L118.004 139.313L114.732 141.061L113.837 139.388C114.011 140.896 113.373 142.213 111.981 142.958C110.183 143.92 108.269 143.257 107.143 141.152L107.151 141.136Z"
            fill="#FAF1E8" />
        <path
            d="M93.2236 141.194C93.1076 138.551 94.7397 136.272 97.7638 135.295C101.409 134.127 104.524 135.709 105.659 139.238C106.794 142.776 105.137 145.891 101.567 147.035C97.4324 148.36 93.9361 146.049 94.0852 142.105L101.707 139.653C101.053 138.377 100.034 137.855 98.642 138.302C97.7141 138.6 97.1672 139.164 97.0513 139.959L93.2318 141.185L93.2236 141.194ZM102.296 141.666L98.1863 142.983C98.4183 144.077 99.3131 144.599 100.639 144.168C101.807 143.795 102.387 142.95 102.296 141.658V141.666Z"
            fill="#FAF1E8" />
        <path
            d="M81.5668 144.872L80.9785 138.352L84.218 138.062L84.392 140.026C85.1128 138.427 86.4466 137.49 88.3605 137.316C90.9703 137.084 92.5196 138.485 92.6936 140.423C92.909 142.785 90.9454 144.35 87.648 144.649C86.8195 144.723 85.9744 144.707 85.2702 144.649C85.411 145.941 85.9993 146.819 87.4077 146.695C88.3522 146.612 88.8493 146.148 88.667 145.394L92.2959 145.071C93.141 147.747 90.7632 149.495 87.6397 149.777C83.9446 150.109 81.8567 148.203 81.5585 144.872H81.5668ZM84.9885 142.213C85.701 142.362 86.5129 142.354 87.0929 142.304C88.6422 142.163 89.131 141.674 89.073 140.987C89.015 140.316 88.4765 140.042 87.6645 140.108C86.4384 140.216 85.4607 141.028 84.9885 142.213Z"
            fill="#FAF1E8" />
        <path
            d="M61.6908 142.577L62.8838 135.692L66.5458 136.33L65.3528 143.215C65.1622 144.317 65.5351 145.154 66.405 145.303C67.598 145.51 68.6502 144.466 68.9568 142.66L69.951 136.919L73.613 137.557L72.4199 144.441C72.2128 145.634 72.5856 146.496 73.497 146.654C74.6403 146.852 75.7919 145.8 76.1316 143.837L77.1176 138.161L80.7795 138.799L78.7911 150.233L75.1291 149.595L75.4771 147.581C74.6072 148.94 73.0496 149.611 71.4506 149.33C69.8267 149.048 68.6834 147.88 68.4514 146.38C67.6312 147.722 66.2393 148.427 64.4994 148.12C62.1216 147.706 61.144 145.726 61.6908 142.569V142.577Z"
            fill="#FAF1E8" />
        <path
            d="M57.3079 148.882C56.877 149.984 55.7006 150.498 54.5987 150.059C53.4968 149.628 52.9831 148.451 53.4222 147.349C53.853 146.248 55.0295 145.734 56.1314 146.173C57.2333 146.604 57.747 147.78 57.3079 148.882ZM62.602 134.847L58.3601 145.651L54.9052 144.292L59.1472 133.489L62.602 134.847Z"
            fill="#FAF1E8" />
        <path
            d="M45.2614 133.721L48.6086 127.855L51.8315 129.694L48.4843 135.56C48.0701 136.289 47.3824 137.499 48.7329 138.269C49.8182 138.89 51.2515 138.211 52.2043 136.537L55.0544 131.533L58.2773 133.373L52.5274 143.455L49.3045 141.616L50.2822 139.901C49.056 140.879 47.4653 140.995 45.9574 140.133C42.6682 138.261 44.5572 134.955 45.2532 133.721H45.2614Z"
            fill="#FAF1E8" />
        <path
            d="M40.514 119.578C42.1545 117.714 45.1951 118.219 47.5646 120.307C49.9176 122.378 50.6964 125.187 49.2962 127.515L46.2473 124.839C46.5953 124.16 46.3384 123.397 45.5182 122.685C44.7146 121.981 43.7783 121.682 43.2398 122.287C42.7676 122.826 42.925 123.737 44.2092 124.872C44.9383 125.518 46.007 126.206 46.9432 126.687L45.5182 128.31C43.8612 127.134 42.461 126.62 41.2763 126.562C41.7154 126.794 42.1462 127.084 42.5853 127.465C44.7311 129.346 45.1702 131.807 43.5629 133.638C41.8645 135.576 39.0393 135.444 36.5455 133.257C35.2365 132.105 34.4991 130.837 34.3168 129.603C33.7369 130.017 33.2563 130.705 32.8587 131.442L30.9365 129.752C31.6656 128.542 33.1155 127.656 34.5405 127.515C34.6896 127.093 34.9631 126.687 35.2862 126.314C36.4958 124.938 38.5588 124.276 40.9531 124.648C39.5033 122.884 39.2879 120.986 40.514 119.595V119.578ZM40.2986 128.965C39.5364 128.294 38.6913 128.228 38.1859 128.808C37.6806 129.379 37.8463 130.208 38.6168 130.887C39.3873 131.558 40.2241 131.624 40.7294 131.045C41.2348 130.465 41.0691 129.644 40.2986 128.965Z"
            fill="#FAF1E8" />
        <path
            d="M86.9849 20.4557C87.8223 20.4557 88.5011 19.7769 88.5011 18.9395C88.5011 18.1021 87.8223 17.4233 86.9849 17.4233C86.1476 17.4233 85.4688 18.1021 85.4688 18.9395C85.4688 19.7769 86.1476 20.4557 86.9849 20.4557Z"
            fill="#FAF1E8" />
        <path
            d="M134.061 116.024C134.898 116.024 135.577 115.345 135.577 114.508C135.577 113.67 134.898 112.991 134.061 112.991C133.224 112.991 132.545 113.67 132.545 114.508C132.545 115.345 133.224 116.024 134.061 116.024Z"
            fill="#FAF1E8" />
        <path
            d="M26.1812 110.29C27.0186 110.29 27.6974 109.612 27.6974 108.774C27.6974 107.937 27.0186 107.258 26.1812 107.258C25.3438 107.258 24.665 107.937 24.665 108.774C24.665 109.612 25.3438 110.29 26.1812 110.29Z"
            fill="#FAF1E8" />
    </g>
    <defs>
        <clipPath id="clip0_329_3769">
            <rect width="163" height="163" fill="white" />
        </clipPath>
    </defs>
</svg>