<svg xmlns="http://www.w3.org/2000/svg" width="24" height="25" viewBox="0 0 24 25" fill="none">
    <path d="M12.8768 16.9324C13.0292 16.5176 13.6375 16.5176 13.7899 16.9324L14.2066 18.0664C14.2554 18.1992 14.3637 18.3036 14.5013 18.3507L15.6774 18.7525C16.1075 18.8995 16.1075 19.486 15.6774 19.6329L14.5013 20.0348C14.3637 20.0818 14.2554 20.1863 14.2066 20.319L13.7899 21.4531C13.6375 21.8678 13.0292 21.8678 12.8768 21.4531L12.4601 20.319C12.4113 20.1863 12.303 20.0818 12.1653 20.0348L10.9892 19.6329C10.5591 19.486 10.5591 18.8995 10.9892 18.7525L12.1653 18.3507C12.303 18.3036 12.4113 18.1992 12.4601 18.0664L12.8768 16.9324Z" stroke="#FAF1E8" stroke-width="1.5" stroke-linejoin="round"/>
    <path d="M14.6394 4.23694C14.8711 3.60657 15.7956 3.60657 16.0272 4.23694L16.8211 6.39748C16.8953 6.59926 17.0599 6.758 17.2691 6.8295L19.5097 7.59505C20.1634 7.81842 20.1634 8.7099 19.5097 8.93327L17.2691 9.69882C17.0599 9.77032 16.8953 9.92906 16.8211 10.1308L16.0272 12.2914C15.7956 12.9218 14.8711 12.9218 14.6394 12.2914L13.8455 10.1308C13.7714 9.92906 13.6068 9.77032 13.3975 9.69882L11.157 8.93327C10.5032 8.7099 10.5032 7.81842 11.157 7.59505L13.3975 6.8295C13.6068 6.758 13.7714 6.59926 13.8455 6.39748L14.6394 4.23694Z" stroke="#FAF1E8" stroke-width="1.5" stroke-linejoin="round"/>
    <path d="M6.48641 10.1271C6.65786 9.6432 7.34214 9.6432 7.51358 10.1271L7.9824 11.4502C8.03728 11.605 8.15913 11.7269 8.31401 11.7818L9.63711 12.2506C10.121 12.422 10.121 13.1063 9.63711 13.2777L8.31401 13.7466C8.15913 13.8014 8.03728 13.9233 7.9824 14.0782L7.51358 15.4013C7.34214 15.8851 6.65786 15.8851 6.48641 15.4013L6.0176 14.0782C5.96272 13.9233 5.84087 13.8014 5.68599 13.7466L4.36289 13.2777C3.87904 13.1063 3.87904 12.422 4.36289 12.2506L5.68599 11.7818C5.84087 11.7269 5.96272 11.605 6.0176 11.4502L6.48641 10.1271Z" stroke="#FAF1E8" stroke-width="1.5" stroke-linejoin="round"/>
</svg>