<svg xmlns="http://www.w3.org/2000/svg" width="111" height="53" viewBox="0 0 111 53" fill="none">
    <g clip-path="url(#clip0_758_6455)">
        <path
            d="M9.34244 21.8216C9.34244 18.7302 11.5597 16.4799 16.5634 16.4799H22.7145V15.2207C22.7145 12.9295 21.4169 12.0157 18.7398 12.0157C16.5634 12.0157 15.3023 12.9295 15.3023 14.4569C15.3023 14.5706 15.3023 14.8752 15.3387 15.257H9.98896C9.95254 14.9525 9.91156 14.5342 9.91156 14.1523C9.91156 10.3382 13.2762 8.08789 19.0038 8.08789C24.7314 8.08789 28.5195 10.761 28.5195 15.7935V27.2405H22.7099C22.8238 26.2858 22.9786 24.5674 22.9786 23.4263H22.9421C22.3685 26.0994 20.2286 27.5451 16.7911 27.5451C12.3975 27.5451 9.33789 25.6357 9.33789 21.8216H9.34244ZM22.7145 19.9895V19.6076H17.0961C15.5299 19.6076 14.5738 20.3305 14.5738 21.4033C14.5738 22.8535 15.835 23.6173 17.9384 23.6173C20.957 23.6173 22.7145 22.2807 22.7145 19.994V19.9895Z"
            fill="white" />
        <path
            d="M32.8398 12.8975H30.0488V8.39693H32.8398V6.56486C32.8398 2.21427 36.0132 0.00488281 40.293 0.00488281C42.2052 0.00488281 43.8443 0.423121 44.3451 0.614056V4.88736C43.8488 4.73279 42.8153 4.42821 41.4813 4.42821C39.5691 4.42821 38.6539 5.3056 38.6539 6.9831V8.39693H44.6547V12.8975H38.6539V27.2404H32.8443V12.8975H32.8398Z"
            fill="white" />
        <path
            d="M48.6992 20.7532V12.8931H45.9082V8.39245H48.1619C49.0406 8.39245 49.3457 7.89692 49.4595 6.75131L49.7281 4.11914H54.5042V8.39245H60.5414V12.8931H54.5042V20.4486C54.5042 22.3943 55.4193 23.0035 57.714 23.0035C58.5154 23.0035 59.6991 22.8899 60.3502 22.7353V27.1222C59.8539 27.2359 58.2467 27.5405 56.6805 27.5405C50.7981 27.5405 48.6946 24.9447 48.6946 20.7487L48.6992 20.7532Z"
            fill="white" />
        <path
            d="M81.1021 18.9257H67.6891C67.9577 22.017 69.524 23.349 72.1191 23.349C74.3729 23.349 75.8252 22.5489 75.98 20.7169H81.1021C80.9883 25.0265 77.396 27.5451 72.0099 27.5451C65.745 27.5451 61.8477 23.9946 61.8477 18.0074C61.8477 12.0202 65.745 8.08789 72.1282 8.08789C77.4006 8.08789 81.1067 11.1019 81.1067 17.2846V18.9257H81.1021ZM75.98 15.5298C75.98 13.3932 74.5277 12.2885 72.1191 12.2885C69.7106 12.2885 68.2992 13.3568 67.8394 15.8389H75.98V15.5344V15.5298Z"
            fill="white" />
        <path
            d="M83.6641 8.39248H89.4736L89.246 13.7705H89.3234C90.1247 10.1836 92.1508 8.08789 95.8569 8.08789C99.563 8.08789 101.972 10.57 101.972 15.4525C101.972 16.5208 101.858 18.1983 101.78 19.1894H96.508C96.5854 18.2756 96.6218 17.321 96.6218 16.7482C96.6218 14.0023 95.5154 12.8931 93.6806 12.8931C91.1947 12.8931 89.4782 14.9161 89.4782 19.1121V27.2405H83.6686V8.39248H83.6641Z"
            fill="white" />
        <path
            d="M0.933594 26.1125H6.74317V34.4318C6.74317 35.1546 6.62935 37.2912 6.51552 38.7051H6.59292C7.54905 35.1182 9.76634 33.3998 14.0461 33.3998C18.5945 33.3998 21.5357 35.882 21.5357 40.7644V52.5524H15.7262V42.0601C15.7262 39.3915 14.2373 38.205 11.6376 38.205C8.58257 38.205 6.74772 39.9962 6.74772 43.583V52.5478H0.933594V26.1079V26.1125Z"
            fill="white" />
        <path
            d="M23.8984 43.1693C23.8984 37.0275 27.9506 33.4043 34.179 33.4043C40.4075 33.4043 44.4596 37.0275 44.4596 43.1693C44.4596 49.311 40.4075 52.8615 34.179 52.8615C27.9506 52.8615 23.8984 49.2746 23.8984 43.1693ZM38.6455 43.1693C38.6455 39.8143 37.0019 37.8276 34.1745 37.8276C31.3471 37.8276 29.7035 39.8097 29.7035 43.1693C29.7035 46.5288 31.3471 48.4336 34.1745 48.4336C37.0019 48.4336 38.6455 46.4879 38.6455 43.1693Z"
            fill="white" />
        <path
            d="M46.8268 44.8834V33.7046H52.6364V44.1969C52.6364 46.8291 54.0888 48.052 56.5702 48.052C59.7026 48.052 61.5739 45.9926 61.5739 41.8739V33.7091H67.3834V52.5571H61.5739C61.6877 51.2615 61.8015 49.6977 61.8425 47.6337H61.7651C60.9228 51.257 58.364 52.8617 54.7717 52.8617C49.8819 52.8617 46.8223 50.4205 46.8223 44.8879L46.8268 44.8834Z"
            fill="white" />
        <path
            d="M70.3262 33.7045H76.1357L75.9081 39.0825H75.9855C76.7868 35.4956 78.8129 33.3999 82.519 33.3999C86.2251 33.3999 88.6336 35.8821 88.6336 40.7645C88.6336 41.8329 88.5198 43.5104 88.4424 44.5014H83.1701C83.2475 43.5876 83.2839 42.633 83.2839 42.0602C83.2839 39.3143 82.1775 38.2051 80.3427 38.2051C77.8568 38.2051 76.1403 40.2281 76.1403 44.4241V52.5525H70.3307V33.7045H70.3262Z"
            fill="white" />
        <path
            d="M90.7676 46.2197H95.9625C95.9625 47.9744 96.8412 49.1201 100.165 49.1201C103.184 49.1201 104.253 48.2427 104.253 46.8698C104.253 46.1833 103.912 45.6469 102.915 45.4196C101.922 45.1923 100.393 45.0377 98.5213 44.8877C95.8077 44.6604 93.7088 44.2376 92.5614 43.4375C91.4915 42.6737 90.7676 41.3008 90.7676 39.737C90.7676 35.6546 94.97 33.4043 100.206 33.4043C106.398 33.4043 109.225 35.7683 109.225 40.1552H104.103C104.067 38.1731 103.147 37.1412 100.283 37.1412C97.6835 37.1412 96.5407 38.0186 96.5407 39.3142C96.5407 40.1143 96.8458 40.7235 97.9157 40.9917C98.8718 41.219 100.552 41.3736 102.578 41.5645C104.909 41.7918 106.553 42.0236 107.964 42.8237C109.189 43.5102 110.068 44.924 110.068 46.5606C110.068 50.5293 106.667 52.8569 100.21 52.8569C93.7543 52.8569 90.7721 50.0338 90.7721 46.2197H90.7676Z"
            fill="white" />
    </g>
    <defs>
        <clipPath id="clip0_758_6455">
            <rect width="109.134" height="52.8571" fill="white" transform="translate(0.933594)" />
        </clipPath>
    </defs>
</svg>