<svg width="112" height="54" viewBox="0 0 112 54" fill="none" xmlns="http://www.w3.org/2000/svg">
    <g clip-path="url(#clip0_329_17796)">
        <g clip-path="url(#clip1_329_17796)">
            <path
                d="M10.1335 21.9712C10.1335 18.8799 12.3508 16.6296 17.3545 16.6296L23.5055 16.6296L23.5055 15.3703C23.5055 13.0791 22.2079 12.1654 19.5308 12.1654C17.3545 12.1654 16.0933 13.0791 16.0933 14.6066C16.0933 14.7202 16.0933 15.0248 16.1297 15.4067L10.78 15.4067C10.7436 15.1021 10.7026 14.6839 10.7026 14.302C10.7026 10.4879 14.0672 8.23755 19.7948 8.23755C25.5225 8.23755 29.3105 10.9106 29.3105 15.9431L29.3105 27.3901L23.501 27.3901C23.6148 26.4355 23.7696 24.717 23.7696 23.576L23.7332 23.576C23.1595 26.2491 21.0196 27.6947 17.5821 27.6947C13.1885 27.6947 10.1289 25.7854 10.1289 21.9712L10.1335 21.9712ZM23.5055 20.1392L23.5055 19.7573L17.8872 19.7573C16.3209 19.7573 15.3648 20.4801 15.3648 21.553C15.3648 23.0032 16.626 23.7669 18.7294 23.7669C21.7481 23.7669 23.5055 22.4304 23.5055 20.1437L23.5055 20.1392Z"
                fill="#D2F0F2" />
            <path
                d="M33.6308 13.0473L30.8398 13.0473L30.8398 8.54671L33.6308 8.54671L33.6308 6.71464C33.6308 2.36405 36.8042 0.154663 41.084 0.154663C42.9962 0.154663 44.6353 0.572901 45.1361 0.763836L45.1361 5.03714C44.6399 4.88257 43.6063 4.57799 42.2723 4.57799C40.3601 4.57799 39.4449 5.45538 39.4449 7.13288L39.4449 8.54671L45.4457 8.54671L45.4457 13.0473L39.4449 13.0473L39.4449 27.3902L33.6354 27.3902L33.6354 13.0473L33.6308 13.0473Z"
                fill="#D2F0F2" />
            <path
                d="M49.4892 20.903L49.4892 13.0428L46.6982 13.0428L46.6982 8.54223L48.952 8.54223C49.8307 8.54223 50.1357 8.0467 50.2496 6.90109L50.5182 4.26892L55.2942 4.26892L55.2942 8.54223L61.3315 8.54223L61.3315 13.0428L55.2942 13.0428L55.2942 20.5984C55.2942 22.5441 56.2094 23.1533 58.5041 23.1533C59.3054 23.1533 60.4892 23.0396 61.1402 22.8851L61.1402 27.272C60.644 27.3857 59.0368 27.6903 57.4705 27.6903C51.5881 27.6903 49.4847 25.0945 49.4847 20.8984L49.4892 20.903Z"
                fill="#D2F0F2" />
            <path
                d="M81.8922 19.0754L68.4791 19.0754C68.7478 22.1667 70.314 23.4987 72.9092 23.4987C75.1629 23.4987 76.6153 22.6986 76.7701 20.8665L81.8922 20.8665C81.7783 25.1762 78.1861 27.6947 72.7999 27.6947C66.535 27.6947 62.6377 24.1442 62.6377 18.1571C62.6377 12.1699 66.535 8.23755 72.9183 8.23755C78.1906 8.23755 81.8967 11.2516 81.8967 17.4342L81.8967 19.0754L81.8922 19.0754ZM76.7701 15.6795C76.7701 13.5428 75.3177 12.4381 72.9092 12.4381C70.5007 12.4381 69.0892 13.5064 68.6294 15.9886L76.7701 15.9886L76.7701 15.684L76.7701 15.6795Z"
                fill="#D2F0F2" />
            <path
                d="M84.4561 8.54213L90.2656 8.54213L90.038 13.9201L90.1154 13.9201C90.9167 10.3333 92.9428 8.23755 96.6489 8.23755C100.355 8.23755 102.764 10.7197 102.764 15.6022C102.764 16.6705 102.65 18.348 102.572 19.339L97.3 19.339C97.3774 18.4253 97.4138 17.4706 97.4138 16.8978C97.4138 14.152 96.3074 13.0427 94.4726 13.0427C91.9867 13.0427 90.2702 15.0657 90.2702 19.2618L90.2702 27.3901L84.4606 27.3901L84.4606 8.54213L84.4561 8.54213Z"
                fill="#D2F0F2" />
            <path
                d="M1.72461 26.2626L7.53419 26.2626L7.53419 34.5819C7.53419 35.3047 7.42036 37.4414 7.30654 38.8552L7.38394 38.8552C8.34006 35.2684 10.5574 33.55 14.8371 33.55C19.3855 33.55 22.3268 36.0321 22.3268 40.9146L22.3268 52.7025L16.5172 52.7025L16.5172 42.2102C16.5172 39.5417 15.0284 38.3551 12.4286 38.3551C9.37358 38.3551 7.53874 40.1463 7.53874 43.7331L7.53874 52.698L1.72461 52.698L1.72461 26.2581L1.72461 26.2626Z"
                fill="#D2F0F2" />
            <path
                d="M24.6895 43.3195C24.6895 37.1778 28.7416 33.5546 34.97 33.5546C41.1985 33.5546 45.2506 37.1778 45.2506 43.3195C45.2506 49.4613 41.1985 53.0117 34.97 53.0117C28.7416 53.0117 24.6895 49.4249 24.6895 43.3195ZM39.4365 43.3195C39.4365 39.9645 37.7929 37.9779 34.9655 37.9779C32.1381 37.9779 30.4945 39.96 30.4945 43.3195C30.4945 46.6791 32.1381 48.5839 34.9655 48.5839C37.7929 48.5839 39.4365 46.6381 39.4365 43.3195Z"
                fill="#D2F0F2" />
            <path
                d="M47.6188 45.0334L47.6188 33.8546L53.4284 33.8546L53.4284 44.3469C53.4284 46.9791 54.8808 48.202 57.3621 48.202C60.4946 48.202 62.3658 46.1426 62.3658 42.0239L62.3658 33.8592L68.1754 33.8592L68.1754 52.7072L62.3658 52.7072C62.4797 51.4115 62.5935 49.8477 62.6345 47.7838L62.5571 47.7838C61.7148 51.407 59.156 53.0117 55.5637 53.0117C50.6738 53.0117 47.6143 50.5705 47.6143 45.0379L47.6188 45.0334Z"
                fill="#D2F0F2" />
            <path
                d="M71.1162 33.8546L76.9258 33.8546L76.6981 39.2326L76.7755 39.2326C77.5769 35.6458 79.6029 33.55 83.309 33.55C87.0151 33.55 89.4237 36.0322 89.4237 40.9147C89.4237 41.983 89.3098 43.6605 89.2324 44.6515L83.9601 44.6515C84.0375 43.7378 84.0739 42.7831 84.0739 42.2103C84.0739 39.4645 82.9676 38.3552 81.1327 38.3552C78.6468 38.3552 76.9303 40.3782 76.9303 44.5743L76.9303 52.7026L71.1208 52.7026L71.1208 33.8546L71.1162 33.8546Z"
                fill="#D2F0F2" />
            <path
                d="M91.5596 46.3699L96.7545 46.3699C96.7545 48.1247 97.6332 49.2703 100.957 49.2703C103.975 49.2703 105.045 48.3929 105.045 47.02C105.045 46.3336 104.704 45.7971 103.707 45.5698C102.714 45.3425 101.185 45.188 99.3133 45.0379C96.5997 44.8106 94.5008 44.3878 93.3534 43.5877C92.2835 42.824 91.5596 41.4511 91.5596 39.8872C91.5596 35.8049 95.762 33.5546 100.998 33.5546C107.19 33.5546 110.017 35.9185 110.017 40.3055L104.895 40.3055C104.859 38.3234 103.939 37.2914 101.075 37.2914C98.4755 37.2914 97.3327 38.1688 97.3327 39.4645C97.3327 40.2646 97.6378 40.8737 98.7077 41.142C99.6638 41.3693 101.344 41.5238 103.37 41.7148C105.701 41.9421 107.345 42.1739 108.756 42.974C109.981 43.6605 110.86 45.0743 110.86 46.7109C110.86 50.6796 107.459 53.0072 101.002 53.0072C94.5463 53.0072 91.5641 50.1841 91.5641 46.3699L91.5596 46.3699Z"
                fill="#D2F0F2" />
        </g>
    </g>
    <defs>
        <clipPath id="clip0_329_17796">
            <rect width="111" height="52.8571" fill="white" transform="translate(0.791992 0.150024)" />
        </clipPath>
        <clipPath id="clip1_329_17796">
            <rect width="109.134" height="52.8571" fill="white"
                transform="translate(1.72461 0.150024)" />
        </clipPath>
    </defs>
</svg>
    