<svg width="193" height="193" viewBox="0 0 193 193" fill="none" xmlns="http://www.w3.org/2000/svg">
<g id="Design elements" clip-path="url(#clip0_449_6022)">
<path id="Vector" d="M96.4937 192.964C149.774 192.964 192.966 149.772 192.966 96.4922C192.966 43.2121 149.774 0.0200195 96.4937 0.0200195C43.2136 0.0200195 0.0214844 43.2121 0.0214844 96.4922C0.0214844 149.772 43.2136 192.964 96.4937 192.964Z" fill="#FAF1E8"/>
<g id="Group">
<path id="Vector_2" d="M111.851 147.087C83.9544 155.552 54.3702 139.75 45.905 111.853C37.4398 83.9557 53.2422 54.3716 81.1392 45.9064C109.036 37.4411 138.62 53.2435 147.086 81.1405C155.551 109.038 139.748 138.622 111.851 147.087ZM82.1691 49.3003C56.1457 57.1966 41.4026 84.7993 49.2989 110.833C57.1953 136.856 84.798 151.599 110.831 143.703C136.855 135.806 151.598 108.204 143.701 82.1705C135.805 56.147 108.202 41.404 82.179 49.3003H82.1691Z" fill="#164CA4"/>
<path id="Vector_3" d="M124.996 74.2154L120.434 74.9511C121.847 83.74 111.557 94.0787 97.0104 98.4928C83.0619 102.73 68.8976 100.121 64.768 92.5583L60.707 94.7752C61.1779 95.6482 61.7468 96.4623 62.3844 97.2373L65.7881 100.366C68.8878 102.564 72.8605 104.045 77.3726 104.741L75.6168 119.259L80.6391 119.867L82.4145 105.183C86.6913 105.291 91.2819 104.771 95.9804 103.564L100.689 119.082L105.407 117.65L100.699 102.132C105.172 100.553 109.213 98.4732 112.666 96.0504L122.259 107.223L126.094 103.927L116.619 92.8918C120.022 89.7922 122.543 86.3394 123.936 82.7983L125.074 78.3156C125.231 76.9423 125.211 75.5592 124.996 74.2056V74.2154Z" fill="#164CA4"/>
</g>
<g id="Group_2">
<g id="Group_3">
<path id="Vector_4" d="M10.4982 102.887L10.0273 98.5126L29.1452 96.4331L29.6259 100.808L28.0172 100.985C29.4395 101.848 30.3419 103.27 30.5381 105.134C30.9403 108.793 28.3311 111.735 23.9562 112.206C19.5814 112.677 16.4032 110.401 16.0109 106.742C15.8049 104.889 16.413 103.299 17.6098 102.122L10.508 102.897L10.4982 102.887ZM22.7595 101.298C20.6015 101.534 19.3165 102.976 19.5323 104.879C19.7383 106.791 21.298 107.92 23.456 107.684C25.614 107.449 26.8989 106.007 26.6831 104.094C26.4772 102.181 24.9175 101.053 22.7595 101.289V101.298Z" fill="#164CA4"/>
<path id="Vector_5" d="M20.9455 82.6218C22.1716 82.7395 23.4075 83.1613 24.4179 83.7891L23.9765 88.3012C23.0152 87.6538 22.1716 87.2419 21.3574 87.1634C20.3177 87.0653 19.582 87.5165 19.5035 88.3601C19.3858 89.5666 20.7199 90.6064 22.9367 90.8124L29.7148 91.4696L29.293 95.8444L15.6191 94.5202L16.0409 90.1454L18.2872 90.3612C16.6785 89.547 15.8055 88.0462 15.9821 86.1923C16.2175 83.7891 18.1205 82.3471 20.9357 82.612L20.9455 82.6218Z" fill="#164CA4"/>
<path id="Vector_6" d="M30.1568 68.8498C32.8151 70.5076 33.9333 73.6366 32.8445 77.2366C31.5301 81.5722 27.9007 83.5438 23.6926 82.2784C19.4846 81.0131 17.562 77.3052 18.847 73.0383C20.3281 68.1239 24.9384 66.27 28.6855 69.0656L25.9487 78.139C27.6359 78.3548 28.8326 77.7172 29.3329 76.0595C29.6664 74.9511 29.48 74.0388 28.7836 73.4012L30.1568 68.8498ZM23.5946 77.3739L25.0659 72.4792C23.8398 71.9691 22.7412 72.4988 22.2605 74.0682C21.8387 75.4611 22.2703 76.599 23.5847 77.3641L23.5946 77.3739Z" fill="#164CA4"/>
<path id="Vector_7" d="M34.0691 54.9799L40.8766 58.6878L39.0325 62.0621L36.9824 60.9439C38.0908 62.6997 38.1301 64.6321 37.0413 66.6331C35.5601 69.36 33.1569 69.9584 31.1362 68.8598C28.6741 67.5159 28.4093 64.5634 30.2926 61.1106C30.7635 60.2376 31.3324 59.4234 31.8523 58.7662C30.4888 58.0502 29.2333 58.06 28.4289 59.5313C27.8894 60.5221 28.0169 61.3166 28.8801 61.6207L26.8202 65.407C23.6323 64.4849 23.4753 60.9831 25.2508 57.7265C27.3597 53.8715 30.6065 53.077 34.0789 54.9701L34.0691 54.9799ZM34.4419 60.0905C33.8337 60.6986 33.2942 61.503 32.9705 62.1013C32.0877 63.7198 32.2446 64.5242 32.9705 64.9165C33.667 65.2991 34.2947 64.9558 34.7558 64.1024C35.4522 62.8272 35.2953 61.3264 34.4419 60.0807V60.0905Z" fill="#164CA4"/>
<path id="Vector_8" d="M49.3505 36.8919L55.3537 42.5812L52.3325 45.7789L46.3293 40.0897C45.368 39.1872 44.2988 39.0009 43.5828 39.7562C42.6019 40.7959 42.9354 42.5125 44.5146 44.0035L49.5271 48.7413L46.5059 51.9292L40.5027 46.24C39.463 45.2591 38.3742 45.0531 37.6189 45.8476C36.6772 46.8481 36.9617 48.6628 38.6782 50.2911L43.622 54.9798L40.6008 58.1776L30.625 48.7315L33.6462 45.5435L35.402 47.2111C34.6369 45.4651 34.99 43.4934 36.3143 42.0907C37.6581 40.6684 39.5513 40.3153 41.1796 41.0608C40.3948 39.3736 40.6204 37.5393 42.0526 36.0189C44.0144 33.9394 46.6138 34.2827 49.3701 36.8919H49.3505Z" fill="#164CA4"/>
<path id="Vector_9" d="M46.0268 28.4365C45.2224 27.2889 45.4873 25.7979 46.6349 24.9936C47.7826 24.1892 49.2736 24.4541 50.0779 25.6017C50.8823 26.7494 50.6174 28.2404 49.4698 29.0447C48.3221 29.8491 46.8311 29.5842 46.0268 28.4365ZM56.3851 42.8559L48.5183 31.5853L52.128 29.0643L59.9949 40.335L56.3851 42.8559Z" fill="#164CA4"/>
<path id="Vector_10" d="M68.882 26.5237L72.4623 33.6745L68.5289 35.6461L64.9486 28.4953C64.5072 27.6125 63.7715 26.1313 62.1236 26.9553C60.7993 27.6223 60.5247 29.4762 61.5448 31.5165L64.5954 37.6079L60.662 39.5796L54.5117 27.2888L58.4452 25.327L59.4947 27.4163C59.3378 25.5624 60.2696 23.9243 62.1137 23.0022C66.1159 21.0012 68.1365 25.0327 68.8918 26.5335L68.882 26.5237Z" fill="#164CA4"/>
<path id="Vector_11" d="M85.9202 31.1438C86.6853 33.9885 84.184 36.6467 80.5742 37.6178C76.9939 38.5791 73.7079 37.5001 72.3346 34.5966L76.9841 33.3509C77.4255 34.1454 78.3377 34.3808 79.5933 34.0473C80.8194 33.7236 81.7317 32.988 81.4766 32.0561C81.2608 31.2321 80.2505 30.7907 78.2887 31.3204C77.1705 31.6245 75.7972 32.213 74.7084 32.8212L74.0414 30.3493C76.2877 29.4959 77.7198 28.4562 78.5535 27.3183C78.0337 27.6028 77.4647 27.8382 76.8075 28.0148C73.5411 28.8878 70.8338 27.7107 70.0883 24.9249C69.3036 21.9822 71.2752 19.2847 75.0713 18.2645C77.0626 17.7348 78.7988 17.8329 80.1328 18.4705C80.1034 17.6269 79.7404 16.6951 79.2794 15.8221L82.2025 15.0374C82.9186 16.548 82.8401 18.5686 82.0358 20.0596C82.3497 20.4912 82.5753 21.0209 82.7322 21.58C83.2913 23.6791 82.5949 26.1412 80.6527 28.2502C83.3404 27.9853 85.3512 29.0055 85.9202 31.134V31.1438ZM76.8075 24.768C77.9748 24.4541 78.5928 23.6595 78.3574 22.7865C78.1219 21.9135 77.1999 21.531 76.0326 21.8448C74.8653 22.1587 74.2474 22.9435 74.4828 23.8263C74.7182 24.6993 75.6403 25.0818 76.8075 24.768Z" fill="#164CA4"/>
<path id="Vector_12" d="M134.574 19.1278L138.586 20.9327L130.67 38.4713L126.658 36.6664L127.325 35.1853C125.854 35.97 124.176 36.0288 122.469 35.2539C119.115 33.7433 117.908 29.9963 119.713 25.9942C121.518 21.9822 125.098 20.403 128.453 21.9234C130.16 22.6885 131.219 24.0127 131.631 25.6508L134.574 19.1376V19.1278ZM129.709 30.4965C130.601 28.5151 130.013 26.6808 128.257 25.8961C126.501 25.1015 124.735 25.8764 123.843 27.8579C122.95 29.8393 123.539 31.6736 125.294 32.4583C127.05 33.2529 128.816 32.478 129.709 30.4965Z" fill="#164CA4"/>
<path id="Vector_13" d="M146.747 38.3829C146.021 39.3835 145.04 40.2271 143.991 40.796L140.322 38.1377C141.362 37.6375 142.146 37.1176 142.627 36.4506C143.235 35.607 143.216 34.7438 142.529 34.2435C141.548 33.5373 139.979 34.165 138.674 35.9601L134.682 41.4826L131.121 38.9028L139.165 27.7695L142.725 30.3395L141.401 32.164C142.921 31.1929 144.648 31.1929 146.158 32.2817C148.12 33.6942 148.405 36.068 146.747 38.3633V38.3829Z" fill="#164CA4"/>
<path id="Vector_14" d="M153.975 53.283C151.199 54.7347 147.933 54.1266 145.373 51.3702C142.293 48.045 142.42 43.9153 145.648 40.9236C148.865 37.9318 153.044 38.1476 156.065 41.4042C159.557 45.1709 158.831 50.0852 154.525 51.8999L148.08 44.9551C147.04 46.2989 146.991 47.6526 148.168 48.918C148.953 49.7615 149.836 50.0656 150.738 49.791L153.975 53.2732V53.283ZM149.934 43.317L153.407 47.064C154.466 46.2695 154.574 45.0434 153.446 43.8369C152.455 42.7677 151.258 42.5715 149.924 43.317H149.934Z" fill="#164CA4"/>
<path id="Vector_15" d="M163.951 63.7001L157.3 67.6826L155.319 64.3868L157.32 63.1901C155.24 63.2489 153.553 62.3073 152.386 60.3552C150.787 57.697 151.483 55.3232 153.465 54.1363C155.868 52.6944 158.556 53.9695 160.576 57.3341C161.086 58.1776 161.498 59.0899 161.802 59.8648C163.107 59.0506 163.745 57.9618 162.881 56.5297C162.303 55.5586 161.557 55.2741 160.851 55.8627L158.634 52.1647C161.047 49.889 164.147 51.5173 166.05 54.7052C168.316 58.4719 167.345 61.6795 163.96 63.7099L163.951 63.7001ZM159.35 61.4244C159.134 60.5907 158.713 59.7275 158.36 59.1389C157.408 57.5597 156.643 57.285 155.937 57.7068C155.25 58.1188 155.23 58.8348 155.731 59.6588C156.476 60.9046 157.849 61.5323 159.35 61.4244Z" fill="#164CA4"/>
<path id="Vector_16" d="M171.739 86.0159L163.784 88.2916L162.577 84.0639L170.523 81.7882C171.788 81.4253 172.494 80.5915 172.21 79.591C171.818 78.2177 170.16 77.6292 168.08 78.2275L161.449 80.1207L160.243 75.893L168.198 73.6173C169.571 73.2249 170.307 72.3911 170.003 71.3317C169.63 70.0075 167.914 69.3307 165.648 69.9781L159.095 71.8516L157.889 67.6239L171.092 63.8474L172.298 68.0751L169.973 68.7421C171.867 68.9678 173.387 70.2822 173.917 72.1263C174.456 73.9998 173.799 75.8145 172.318 76.8346C174.172 77.021 175.633 78.1392 176.212 80.1501C176.997 82.8966 175.388 84.9565 171.739 85.9963V86.0159Z" fill="#164CA4"/>
<path id="Vector_17" d="M163.1 89.0664L176.793 87.9775L177.146 92.3622L163.453 93.451L163.1 89.0762V89.0664ZM180.766 87.4086C182.159 87.3007 183.316 88.2816 183.424 89.6745C183.532 91.0674 182.551 92.2249 181.158 92.3328C179.765 92.4407 178.608 91.4598 178.5 90.0669C178.392 88.674 179.373 87.5165 180.766 87.4086Z" fill="#164CA4"/>
<path id="Vector_18" d="M170.877 108.106L162.902 107.576L163.187 103.191L171.162 103.721C172.152 103.79 173.79 103.898 173.918 102.054C174.016 100.572 172.554 99.4052 170.279 99.2482L163.481 98.797L163.775 94.4124L177.479 95.3246L177.184 99.7093L174.85 99.5523C176.527 100.347 177.469 101.985 177.331 104.035C177.037 108.498 172.545 108.204 170.867 108.096L170.877 108.106Z" fill="#164CA4"/>
<path id="Vector_19" d="M158.243 120.475C155.408 119.69 154.388 116.179 155.379 112.579C156.37 108.998 158.969 106.723 162.167 107.017L160.882 111.657C159.979 111.637 159.302 112.304 158.959 113.55C158.626 114.766 158.783 115.924 159.714 116.179C160.538 116.404 161.431 115.767 161.971 113.805C162.275 112.696 162.461 111.205 162.49 109.96L164.952 110.646C164.55 113.02 164.727 114.776 165.276 116.071C165.296 115.482 165.384 114.874 165.561 114.207C166.463 110.95 168.856 109.214 171.632 109.989C174.575 110.803 175.89 113.874 174.84 117.66C174.291 119.651 173.32 121.093 172.093 121.917C172.839 122.319 173.82 122.476 174.801 122.525L173.996 125.438C172.329 125.291 170.632 124.193 169.749 122.751C169.219 122.81 168.641 122.731 168.091 122.574C166.002 121.995 164.236 120.132 163.393 117.395C162.255 119.847 160.352 121.064 158.233 120.475H158.243ZM168.366 115.865C168.042 117.032 168.415 117.964 169.288 118.199C170.161 118.445 170.956 117.836 171.279 116.669C171.603 115.502 171.23 114.57 170.357 114.335C169.484 114.089 168.69 114.697 168.366 115.865Z" fill="#164CA4"/>
<path id="Vector_20" d="M149.513 164.557L146.139 167.372L133.818 152.61L137.193 149.794L138.232 151.04C138.164 149.373 138.85 147.842 140.283 146.646C143.108 144.292 147.002 144.831 149.817 148.205C152.632 151.58 152.495 155.484 149.67 157.848C148.238 159.044 146.58 159.417 144.942 159.084L149.523 164.567L149.513 164.557ZM141.401 155.229C142.794 156.896 144.697 157.161 146.178 155.935C147.649 154.699 147.728 152.776 146.345 151.109C144.952 149.441 143.049 149.176 141.568 150.403C140.096 151.639 140.018 153.561 141.411 155.229H141.401Z" fill="#164CA4"/>
<path id="Vector_21" d="M126.862 167.097C126.283 166.009 125.949 164.753 125.9 163.556L129.893 161.418C129.893 162.575 130.01 163.507 130.403 164.233C130.893 165.155 131.678 165.518 132.433 165.116C133.502 164.547 133.62 162.86 132.58 160.898L129.363 154.895L133.238 152.825L139.712 164.939L135.837 167.009L134.778 165.028C134.984 166.813 134.228 168.373 132.58 169.255C130.452 170.393 128.186 169.609 126.852 167.117L126.862 167.097Z" fill="#164CA4"/>
<path id="Vector_22" d="M110.374 167.166C110.237 164.037 112.169 161.34 115.749 160.182C120.065 158.799 123.754 160.672 125.097 164.851C126.441 169.04 124.479 172.728 120.252 174.081C115.357 175.651 111.218 172.914 111.394 168.245L120.419 165.342C119.644 163.831 118.437 163.213 116.789 163.743C115.691 164.096 115.043 164.763 114.906 165.705L110.384 167.156L110.374 167.166ZM121.115 167.725L116.25 169.285C116.524 170.58 117.584 171.198 119.153 170.688C120.536 170.246 121.223 169.246 121.115 167.715V167.725Z" fill="#164CA4"/>
<path id="Vector_23" d="M96.5734 171.522L95.877 163.802L99.7123 163.458L99.9183 165.783C100.772 163.89 102.351 162.782 104.617 162.576C107.707 162.301 109.541 163.959 109.747 166.254C110.002 169.05 107.677 170.904 103.773 171.257C102.792 171.345 101.792 171.325 100.958 171.257C101.125 172.787 101.821 173.827 103.489 173.68C104.607 173.581 105.196 173.032 104.98 172.139L109.276 171.757C110.277 174.925 107.461 176.995 103.763 177.328C99.3886 177.721 96.9167 175.465 96.5636 171.522H96.5734ZM100.625 168.373C101.468 168.549 102.429 168.54 103.116 168.481C104.95 168.314 105.529 167.735 105.46 166.921C105.392 166.127 104.754 165.803 103.793 165.881C102.341 166.009 101.184 166.97 100.625 168.373Z" fill="#164CA4"/>
<path id="Vector_24" d="M73.0422 168.804L74.4547 160.653L78.7903 161.408L77.3778 169.559C77.1522 170.864 77.5936 171.855 78.6236 172.031C80.0361 172.277 81.2818 171.041 81.6448 168.902L82.8219 162.105L87.1575 162.86L85.745 171.011C85.4997 172.424 85.9411 173.444 87.0201 173.63C88.3738 173.866 89.7372 172.62 90.1394 170.295L91.3067 163.576L95.6423 164.331L93.2881 177.868L88.9525 177.112L89.3645 174.729C88.3346 176.338 86.4904 177.132 84.5973 176.799C82.6747 176.465 81.3211 175.082 81.0464 173.307C80.0753 174.896 78.4274 175.729 76.3675 175.366C73.5523 174.876 72.3948 172.532 73.0422 168.794V168.804Z" fill="#164CA4"/>
<path id="Vector_25" d="M67.8522 176.269C67.3421 177.574 65.9493 178.182 64.6447 177.662C63.34 177.152 62.7319 175.759 63.2518 174.454C63.7618 173.15 65.1547 172.541 66.4593 173.061C67.7639 173.571 68.3721 174.964 67.8522 176.269ZM74.1202 159.652L69.098 172.443L65.0076 170.835L70.0298 158.044L74.1202 159.652Z" fill="#164CA4"/>
<path id="Vector_26" d="M53.5901 158.318L57.5529 151.374L61.3687 153.551L57.4058 160.496C56.9154 161.359 56.1012 162.791 57.7001 163.704C58.9851 164.439 60.682 163.635 61.8101 161.653L65.1844 155.729L69.0001 157.906L62.1926 169.844L58.3769 167.666L59.5344 165.636C58.0826 166.793 56.1993 166.931 54.4141 165.911C50.5199 163.694 52.7563 159.78 53.5803 158.318H53.5901Z" fill="#164CA4"/>
<path id="Vector_27" d="M47.9701 141.575C49.9123 139.368 53.5123 139.966 56.3177 142.438C59.1034 144.89 60.0255 148.215 58.3678 150.972L54.758 147.803C55.17 146.999 54.8659 146.097 53.8948 145.253C52.9433 144.419 51.8349 144.066 51.1973 144.782C50.6382 145.42 50.8246 146.499 52.345 147.843C53.2082 148.608 54.4736 149.422 55.582 149.991L53.8948 151.913C51.933 150.52 50.2753 149.912 48.8726 149.844C49.3925 150.118 49.9025 150.462 50.4224 150.913C52.963 153.139 53.4828 156.053 51.5799 158.221C49.569 160.516 46.2241 160.359 43.2716 157.769C41.7218 156.406 40.8488 154.905 40.633 153.444C39.9463 153.934 39.3774 154.748 38.9066 155.621L36.6309 153.62C37.4941 152.188 39.2106 151.138 40.8978 150.972C41.0744 150.471 41.3981 149.991 41.7806 149.549C43.2127 147.921 45.6552 147.136 48.49 147.578C46.7734 145.488 46.5184 143.242 47.9701 141.594V141.575ZM47.7151 152.688C46.8127 151.894 45.8122 151.815 45.2138 152.502C44.6154 153.179 44.8116 154.16 45.7239 154.964C46.6361 155.759 47.6268 155.837 48.2252 155.15C48.8235 154.464 48.6274 153.493 47.7151 152.688Z" fill="#164CA4"/>
</g>
<path id="Vector_28" d="M102.986 24.2185C103.978 24.2185 104.782 23.4149 104.782 22.4235C104.782 21.4321 103.978 20.6284 102.986 20.6284C101.995 20.6284 101.191 21.4321 101.191 22.4235C101.191 23.4149 101.995 24.2185 102.986 24.2185Z" fill="#164CA4"/>
<path id="Vector_29" d="M158.723 137.366C159.714 137.366 160.518 136.563 160.518 135.571C160.518 134.58 159.714 133.776 158.723 133.776C157.731 133.776 156.928 134.58 156.928 135.571C156.928 136.563 157.731 137.366 158.723 137.366Z" fill="#164CA4"/>
<path id="Vector_30" d="M30.9982 130.578C31.9896 130.578 32.7932 129.775 32.7932 128.783C32.7932 127.792 31.9896 126.988 30.9982 126.988C30.0068 126.988 29.2031 127.792 29.2031 128.783C29.2031 129.775 30.0068 130.578 30.9982 130.578Z" fill="#164CA4"/>
</g>
</g>
<defs>
<clipPath id="clip0_449_6022">
<rect width="192.984" height="192.984" fill="white"/>
</clipPath>
</defs>
</svg>
